<?xml version="1.0" encoding="UTF-8" standalone="no"?>
<!DOCTYPE svg PUBLIC "-//W3C//DTD SVG 1.1//EN"
 "http://www.w3.org/Graphics/SVG/1.1/DTD/svg11.dtd">
<!-- Generated by graphviz version 14.1.5 (20260411.2331)
 -->
<!-- Title: G Pages: 1 -->
<svg width="1300pt" height="1465pt"
 viewBox="0.00 0.00 1300.00 1465.00" xmlns="http://www.w3.org/2000/svg" xmlns:xlink="http://www.w3.org/1999/xlink">
<g id="graph0" class="graph" transform="scale(1 1) rotate(0) translate(4 1461)">
<title>G</title><style>.edge>path:hover{stroke-width:8}</style>
<polygon fill="white" stroke="none" points="-4,4 -4,-1461 1295.84,-1461 1295.84,4 -4,4"/>
<!-- fastapi -->
<g id="node1" class="node">
<title>fastapi</title><style>.edge>path:hover{stroke-width:8}</style>
<polygon fill="blue" stroke="black" points="407.05,-624 353.05,-624 353.05,-588 407.05,-588 407.05,-624"/>
<text xml:space="preserve" text-anchor="middle" x="380.05" y="-602.5" font-family="Helvetica,sans-Serif" font-size="10.00" fill="white">fastapi</text>
</g>
<!-- src_api_app -->
<g id="node20" class="node">
<title>src_api_app</title><style>.edge>path:hover{stroke-width:8}</style>
<ellipse fill="#5b287a" stroke="black" cx="1001.43" cy="-779" rx="38.49" ry="18"/>
<text xml:space="preserve" text-anchor="middle" x="1001.43" y="-775.5" font-family="Helvetica,sans-Serif" font-size="10.00" fill="#ffffff">src.api.app</text>
</g>
<!-- fastapi&#45;&gt;src_api_app -->
<g id="edge1" class="edge">
<title>fastapi&#45;&gt;src_api_app</title><style>.edge>path:hover{stroke-width:8}</style>
<path fill="none" stroke="black" d="M681.27,-566C795.1,-574.62 825.72,-600.72 915.67,-671 944.6,-693.6 969.39,-728.09 984.56,-751.99"/>
<polygon fill="blue" stroke="black" points="981.42,-753.57 989.66,-760.23 987.38,-749.89 981.42,-753.57"/>
<path fill="none" stroke="black" d="M400.6,-587.66C419.49,-571.29 449.77,-548.48 480.93,-539 566.04,-513.1 593.1,-543.88 679.27,-566"/>
</g>
<!-- src_api_routes -->
<g id="node22" class="node">
<title>src_api_routes</title><style>.edge>path:hover{stroke-width:8}</style>
<ellipse fill="#723399" stroke="black" cx="849.2" cy="-698" rx="45.25" ry="18"/>
<text xml:space="preserve" text-anchor="middle" x="849.2" y="-694.5" font-family="Helvetica,sans-Serif" font-size="10.00" fill="#ffffff">src.api.routes</text>
</g>
<!-- fastapi&#45;&gt;src_api_routes -->
<g id="edge2" class="edge">
<title>fastapi&#45;&gt;src_api_routes</title><style>.edge>path:hover{stroke-width:8}</style>
<path fill="none" stroke="black" d="M407.23,-603.04C468.55,-597.07 625.47,-587.46 746.74,-629 774.79,-638.61 802.34,-658.17 821.64,-674.02"/>
<polygon fill="blue" stroke="black" points="819.36,-676.68 829.26,-680.47 823.88,-671.34 819.36,-676.68"/>
</g>
<!-- fastapi_middleware -->
<g id="node2" class="node">
<title>fastapi_middleware</title><style>.edge>path:hover{stroke-width:8}</style>
<ellipse fill="#b68153" stroke="black" cx="529.36" cy="-859" rx="46.32" ry="22.63"/>
<text xml:space="preserve" text-anchor="middle" x="529.36" y="-861.5" font-family="Helvetica,sans-Serif" font-size="10.00" fill="#000000">fastapi.</text>
<text xml:space="preserve" text-anchor="middle" x="529.36" y="-849.5" font-family="Helvetica,sans-Serif" font-size="10.00" fill="#000000">middleware</text>
</g>
<!-- fastapi_middleware&#45;&gt;src_api_app -->
<g id="edge3" class="edge">
<title>fastapi_middleware&#45;&gt;src_api_app</title><style>.edge>path:hover{stroke-width:8}</style>
<path fill="none" stroke="black" d="M575.98,-859.21C605.45,-859.29 644.63,-859.31 679.27,-859"/>
</g>
<!-- fastapi_middleware_cors -->
<g id="node3" class="node">
<title>fastapi_middleware_cors</title><style>.edge>path:hover{stroke-width:8}</style>
<ellipse fill="#b68153" stroke="black" cx="529.36" cy="-787" rx="48.44" ry="31.11"/>
<text xml:space="preserve" text-anchor="middle" x="529.36" y="-795.5" font-family="Helvetica,sans-Serif" font-size="10.00" fill="#000000">fastapi.</text>
<text xml:space="preserve" text-anchor="middle" x="529.36" y="-783.5" font-family="Helvetica,sans-Serif" font-size="10.00" fill="#000000">middleware.</text>
<text xml:space="preserve" text-anchor="middle" x="529.36" y="-771.5" font-family="Helvetica,sans-Serif" font-size="10.00" fill="#000000">cors</text>
</g>
<!-- fastapi_middleware_cors&#45;&gt;src_api_app -->
<g id="edge4" class="edge">
<title>fastapi_middleware_cors&#45;&gt;src_api_app</title><style>.edge>path:hover{stroke-width:8}</style>
<path fill="none" stroke="black" d="M850.2,-859C893.49,-844.25 939.34,-818.1 968.84,-799.72"/>
<polygon fill="#b68153" stroke="black" points="970.7,-802.69 977.28,-794.39 966.96,-796.77 970.7,-802.69"/>
<path fill="none" stroke="black" d="M681.27,-859C755.46,-858.34 777.98,-882.93 848.2,-859"/>
<path fill="none" stroke="black" d="M560,-811.36C588.69,-832.4 634.33,-859.4 679.27,-859"/>
</g>
<!-- fastapi_responses -->
<g id="node4" class="node">
<title>fastapi_responses</title><style>.edge>path:hover{stroke-width:8}</style>
<polygon fill="blue" stroke="black" points="257.21,-658 196.21,-658 196.21,-622 257.21,-622 257.21,-658"/>
<text xml:space="preserve" text-anchor="middle" x="226.71" y="-642.5" font-family="Helvetica,sans-Serif" font-size="10.00" fill="white">fastapi.</text>
<text xml:space="preserve" text-anchor="middle" x="226.71" y="-630.5" font-family="Helvetica,sans-Serif" font-size="10.00" fill="white">responses</text>
</g>
<!-- fastapi_responses&#45;&gt;fastapi -->
<g id="edge5" class="edge">
<title>fastapi_responses&#45;&gt;fastapi</title><style>.edge>path:hover{stroke-width:8}</style>
<path fill="none" stroke="black" d="M257.61,-633.28C281.77,-627.85 315.91,-620.19 341.84,-614.36"/>
<polygon fill="blue" stroke="black" points="342.28,-617.85 351.27,-612.24 340.75,-611.02 342.28,-617.85"/>
</g>
<!-- fastapi_responses&#45;&gt;src_api_routes -->
<g id="edge6" class="edge">
<title>fastapi_responses&#45;&gt;src_api_routes</title><style>.edge>path:hover{stroke-width:8}</style>
<path fill="none" stroke="black" d="M681.27,-728C721.69,-726.98 766.77,-718.42 799.89,-710.71"/>
<polygon fill="blue" stroke="black" points="800.7,-714.11 809.61,-708.38 799.07,-707.31 800.7,-714.11"/>
<path fill="none" stroke="black" d="M257.6,-647.15C274.47,-651.1 295.96,-656.01 315.17,-660 355.47,-668.37 638.13,-729.04 679.27,-728"/>
</g>
<!-- httpx -->
<g id="node5" class="node">
<title>httpx</title><style>.edge>path:hover{stroke-width:8}</style>
<ellipse fill="#c2b947" stroke="black" cx="226.71" cy="-537" rx="27" ry="18"/>
<text xml:space="preserve" text-anchor="middle" x="226.71" y="-533.5" font-family="Helvetica,sans-Serif" font-size="10.00" fill="#000000">httpx</text>
</g>
<!-- src_api_time_client -->
<g id="node23" class="node">
<title>src_api_time_client</title><style>.edge>path:hover{stroke-width:8}</style>
<ellipse fill="#754096" stroke="black" cx="680.27" cy="-411" rx="44.72" ry="31.11"/>
<text xml:space="preserve" text-anchor="middle" x="680.27" y="-419.5" font-family="Helvetica,sans-Serif" font-size="10.00" fill="#ffffff">src.</text>
<text xml:space="preserve" text-anchor="middle" x="680.27" y="-407.5" font-family="Helvetica,sans-Serif" font-size="10.00" fill="#ffffff">api.</text>
<text xml:space="preserve" text-anchor="middle" x="680.27" y="-395.5" font-family="Helvetica,sans-Serif" font-size="10.00" fill="#ffffff">time_client</text>
</g>
<!-- httpx&#45;&gt;src_api_time_client -->
<g id="edge7" class="edge">
<title>httpx&#45;&gt;src_api_time_client</title><style>.edge>path:hover{stroke-width:8}</style>
<path fill="none" stroke="black" d="M241.92,-521.88C258.04,-505.74 285.92,-480.77 315.17,-468 329.24,-461.86 526.81,-432.9 624.87,-418.78"/>
<polygon fill="#c2b947" stroke="black" points="625.13,-422.27 634.53,-417.39 624.13,-415.35 625.13,-422.27"/>
</g>
<!-- src_api_time_providers -->
<g id="node24" class="node">
<title>src_api_time_providers</title><style>.edge>path:hover{stroke-width:8}</style>
<ellipse fill="#893db8" stroke="black" cx="680.27" cy="-669" rx="56.39" ry="31.11"/>
<text xml:space="preserve" text-anchor="middle" x="680.27" y="-677.5" font-family="Helvetica,sans-Serif" font-size="10.00" fill="#ffffff">src.</text>
<text xml:space="preserve" text-anchor="middle" x="680.27" y="-665.5" font-family="Helvetica,sans-Serif" font-size="10.00" fill="#ffffff">api.</text>
<text xml:space="preserve" text-anchor="middle" x="680.27" y="-653.5" font-family="Helvetica,sans-Serif" font-size="10.00" fill="#ffffff">time_providers</text>
</g>
<!-- httpx&#45;&gt;src_api_time_providers -->
<g id="edge8" class="edge">
<title>httpx&#45;&gt;src_api_time_providers</title><style>.edge>path:hover{stroke-width:8}</style>
<path fill="none" stroke="black" d="M237.36,-553.67C251.35,-576.06 279.51,-615.1 315.17,-633 365.67,-658.35 521.8,-665.85 612.37,-668.07"/>
<polygon fill="#c2b947" stroke="black" points="612.03,-671.56 622.1,-668.29 612.19,-664.56 612.03,-671.56"/>
</g>
<!-- openmeteo_requests -->
<g id="node6" class="node">
<title>openmeteo_requests</title><style>.edge>path:hover{stroke-width:8}</style>
<ellipse fill="#8ec040" stroke="black" cx="69.12" cy="-126" rx="64.19" ry="18"/>
<text xml:space="preserve" text-anchor="middle" x="69.12" y="-122.5" font-family="Helvetica,sans-Serif" font-size="10.00" fill="#000000">openmeteo_requests</text>
</g>
<!-- src_app_weather_forecast_client -->
<g id="node27" class="node">
<title>src_app_weather_forecast_client</title><style>.edge>path:hover{stroke-width:8}</style>
<ellipse fill="#833ab0" stroke="black" cx="680.27" cy="-72" rx="66.47" ry="39.6"/>
<text xml:space="preserve" text-anchor="middle" x="680.27" y="-86.5" font-family="Helvetica,sans-Serif" font-size="10.00" fill="#ffffff">src.</text>
<text xml:space="preserve" text-anchor="middle" x="680.27" y="-74.5" font-family="Helvetica,sans-Serif" font-size="10.00" fill="#ffffff">app.</text>
<text xml:space="preserve" text-anchor="middle" x="680.27" y="-62.5" font-family="Helvetica,sans-Serif" font-size="10.00" fill="#ffffff">weather_forecast.</text>
<text xml:space="preserve" text-anchor="middle" x="680.27" y="-50.5" font-family="Helvetica,sans-Serif" font-size="10.00" fill="#ffffff">client</text>
</g>
<!-- openmeteo_requests&#45;&gt;src_app_weather_forecast_client -->
<g id="edge9" class="edge">
<title>openmeteo_requests&#45;&gt;src_app_weather_forecast_client</title><style>.edge>path:hover{stroke-width:8}</style>
<path fill="none" stroke="black" d="M108,-111.39C150.07,-95.39 213.66,-72 225.71,-72"/>
</g>
<!-- openmeteo_sdk -->
<g id="node7" class="node">
<title>openmeteo_sdk</title><style>.edge>path:hover{stroke-width:8}</style>
<ellipse fill="#5ac247" stroke="black" cx="69.12" cy="-284" rx="51.11" ry="18"/>
<text xml:space="preserve" text-anchor="middle" x="69.12" y="-280.5" font-family="Helvetica,sans-Serif" font-size="10.00" fill="#000000">openmeteo_sdk</text>
</g>
<!-- src_app_weather_forecast_parsers -->
<g id="node30" class="node">
<title>src_app_weather_forecast_parsers</title><style>.edge>path:hover{stroke-width:8}</style>
<ellipse fill="#833ab0" stroke="black" cx="680.27" cy="-305" rx="66.47" ry="39.6"/>
<text xml:space="preserve" text-anchor="middle" x="680.27" y="-319.5" font-family="Helvetica,sans-Serif" font-size="10.00" fill="#ffffff">src.</text>
<text xml:space="preserve" text-anchor="middle" x="680.27" y="-307.5" font-family="Helvetica,sans-Serif" font-size="10.00" fill="#ffffff">app.</text>
<text xml:space="preserve" text-anchor="middle" x="680.27" y="-295.5" font-family="Helvetica,sans-Serif" font-size="10.00" fill="#ffffff">weather_forecast.</text>
<text xml:space="preserve" text-anchor="middle" x="680.27" y="-283.5" font-family="Helvetica,sans-Serif" font-size="10.00" fill="#ffffff">parsers</text>
</g>
<!-- openmeteo_sdk&#45;&gt;src_app_weather_forecast_parsers -->
<g id="edge10" class="edge">
<title>openmeteo_sdk&#45;&gt;src_app_weather_forecast_parsers</title><style>.edge>path:hover{stroke-width:8}</style>
<path fill="none" stroke="black" d="M104.35,-297.51C148.21,-314.75 219.38,-342.41 225.71,-343"/>
<path fill="none" stroke="black" d="M227.71,-343C360.86,-355.36 516.27,-334.55 605.68,-319.17"/>
<polygon fill="#5ac247" stroke="black" points="606.04,-322.66 615.29,-317.49 604.84,-315.77 606.04,-322.66"/>
</g>
<!-- openmeteo_sdk_VariablesWithTime -->
<g id="node8" class="node">
<title>openmeteo_sdk_VariablesWithTime</title><style>.edge>path:hover{stroke-width:8}</style>
<ellipse fill="#5cb34c" stroke="black" cx="69.12" cy="-343" rx="69.12" ry="22.63"/>
<text xml:space="preserve" text-anchor="middle" x="69.12" y="-345.5" font-family="Helvetica,sans-Serif" font-size="10.00" fill="#000000">openmeteo_sdk.</text>
<text xml:space="preserve" text-anchor="middle" x="69.12" y="-333.5" font-family="Helvetica,sans-Serif" font-size="10.00" fill="#000000">VariablesWithTime</text>
</g>
<!-- openmeteo_sdk_VariablesWithTime&#45;&gt;src_app_weather_forecast_parsers -->
<g id="edge11" class="edge">
<title>openmeteo_sdk_VariablesWithTime&#45;&gt;src_app_weather_forecast_parsers</title><style>.edge>path:hover{stroke-width:8}</style>
<path fill="none" stroke="black" d="M138.03,-340.2C165.33,-339.8 197.07,-340.26 225.71,-343"/>
</g>
<!-- pandas -->
<g id="node9" class="node">
<title>pandas</title><style>.edge>path:hover{stroke-width:8}</style>
<ellipse fill="#33cc62" stroke="black" cx="69.12" cy="-230" rx="28.56" ry="18"/>
<text xml:space="preserve" text-anchor="middle" x="69.12" y="-226.5" font-family="Helvetica,sans-Serif" font-size="10.00" fill="#000000">pandas</text>
</g>
<!-- src_app_weather_forecast_gather -->
<g id="node28" class="node">
<title>src_app_weather_forecast_gather</title><style>.edge>path:hover{stroke-width:8}</style>
<ellipse fill="#643781" stroke="black" cx="849.2" cy="-169" rx="66.47" ry="39.6"/>
<text xml:space="preserve" text-anchor="middle" x="849.2" y="-183.5" font-family="Helvetica,sans-Serif" font-size="10.00" fill="#ffffff">src.</text>
<text xml:space="preserve" text-anchor="middle" x="849.2" y="-171.5" font-family="Helvetica,sans-Serif" font-size="10.00" fill="#ffffff">app.</text>
<text xml:space="preserve" text-anchor="middle" x="849.2" y="-159.5" font-family="Helvetica,sans-Serif" font-size="10.00" fill="#ffffff">weather_forecast.</text>
<text xml:space="preserve" text-anchor="middle" x="849.2" y="-147.5" font-family="Helvetica,sans-Serif" font-size="10.00" fill="#ffffff">gather</text>
</g>
<!-- pandas&#45;&gt;src_app_weather_forecast_gather -->
<g id="edge12" class="edge">
<title>pandas&#45;&gt;src_app_weather_forecast_gather</title><style>.edge>path:hover{stroke-width:8}</style>
<path fill="none" stroke="black" d="M94.34,-238.71C162.4,-262.15 361.31,-323.59 528.36,-305"/>
<path fill="none" stroke="black" d="M530.36,-305C573.15,-300.66 574.27,-272.93 613.8,-256 670.29,-231.8 689.32,-239.89 746.74,-218 760.5,-212.75 774.95,-206.35 788.49,-199.93"/>
<polygon fill="#33cc62" stroke="black" points="789.78,-203.19 797.27,-195.7 786.74,-196.89 789.78,-203.19"/>
</g>
<!-- pandas&#45;&gt;src_app_weather_forecast_parsers -->
<g id="edge13" class="edge">
<title>pandas&#45;&gt;src_app_weather_forecast_parsers</title><style>.edge>path:hover{stroke-width:8}</style>
<path fill="none" stroke="black" d="M530.36,-305C553.77,-302.4 579.37,-301.65 602.64,-301.76"/>
<polygon fill="#33cc62" stroke="black" points="602.31,-305.25 612.35,-301.86 602.39,-298.26 602.31,-305.25"/>
</g>
<!-- pydantic -->
<g id="node10" class="node">
<title>pydantic</title><style>.edge>path:hover{stroke-width:8}</style>
<ellipse fill="#40c0a2" stroke="black" cx="69.12" cy="-402" rx="31.72" ry="18"/>
<text xml:space="preserve" text-anchor="middle" x="69.12" y="-398.5" font-family="Helvetica,sans-Serif" font-size="10.00" fill="#000000">pydantic</text>
</g>
<!-- src_api_models -->
<g id="node21" class="node">
<title>src_api_models</title><style>.edge>path:hover{stroke-width:8}</style>
<ellipse fill="#8e40c0" stroke="black" cx="529.36" cy="-398" rx="47.96" ry="18"/>
<text xml:space="preserve" text-anchor="middle" x="529.36" y="-394.5" font-family="Helvetica,sans-Serif" font-size="10.00" fill="#ffffff">src.api.models</text>
</g>
<!-- pydantic&#45;&gt;src_api_models -->
<g id="edge14" class="edge">
<title>pydantic&#45;&gt;src_api_models</title><style>.edge>path:hover{stroke-width:8}</style>
<path fill="none" stroke="black" d="M101.26,-401.73C176.94,-401.07 371.55,-399.37 469.79,-398.51"/>
<polygon fill="#40c0a2" stroke="black" points="469.79,-402.01 479.76,-398.42 469.73,-395.01 469.79,-402.01"/>
</g>
<!-- PySide6 -->
<g id="node11" class="node">
<title>PySide6</title><style>.edge>path:hover{stroke-width:8}</style>
<ellipse fill="#d92626" stroke="black" cx="226.71" cy="-1191" rx="31.72" ry="18"/>
<text xml:space="preserve" text-anchor="middle" x="226.71" y="-1187.5" font-family="Helvetica,sans-Serif" font-size="10.00" fill="#ffffff">PySide6</text>
</g>
<!-- qasync -->
<g id="node15" class="node">
<title>qasync</title><style>.edge>path:hover{stroke-width:8}</style>
<ellipse fill="#468fa4" stroke="black" cx="529.36" cy="-1107" rx="28.56" ry="18"/>
<text xml:space="preserve" text-anchor="middle" x="529.36" y="-1103.5" font-family="Helvetica,sans-Serif" font-size="10.00" fill="#ffffff">qasync</text>
</g>
<!-- PySide6&#45;&gt;qasync -->
<g id="edge15" class="edge">
<title>PySide6&#45;&gt;qasync</title><style>.edge>path:hover{stroke-width:8}</style>
<path fill="none" stroke="black" d="M255.72,-1183.17C310.36,-1167.91 431.13,-1134.17 491.91,-1117.18"/>
<polygon fill="#d92626" stroke="black" points="492.74,-1120.59 501.43,-1114.53 490.85,-1113.85 492.74,-1120.59"/>
</g>
<!-- src_app_application -->
<g id="node26" class="node">
<title>src_app_application</title><style>.edge>path:hover{stroke-width:8}</style>
<ellipse fill="#612b82" stroke="black" cx="1001.43" cy="-1123" rx="44.19" ry="31.11"/>
<text xml:space="preserve" text-anchor="middle" x="1001.43" y="-1131.5" font-family="Helvetica,sans-Serif" font-size="10.00" fill="#ffffff">src.</text>
<text xml:space="preserve" text-anchor="middle" x="1001.43" y="-1119.5" font-family="Helvetica,sans-Serif" font-size="10.00" fill="#ffffff">app.</text>
<text xml:space="preserve" text-anchor="middle" x="1001.43" y="-1107.5" font-family="Helvetica,sans-Serif" font-size="10.00" fill="#ffffff">application</text>
</g>
<!-- PySide6&#45;&gt;src_app_application -->
<g id="edge16" class="edge">
<title>PySide6&#45;&gt;src_app_application</title><style>.edge>path:hover{stroke-width:8}</style>
<path fill="none" stroke="black" d="M258.41,-1187.89C300.6,-1183.42 378.8,-1174.46 444.93,-1163 504.48,-1152.68 519.05,-1148.22 577.8,-1134 623.16,-1123.02 636.17,-1089.09 679.27,-1107"/>
</g>
<!-- src_helpers_style_loader -->
<g id="node37" class="node">
<title>src_helpers_style_loader</title><style>.edge>path:hover{stroke-width:8}</style>
<ellipse fill="#6c3091" stroke="black" cx="680.27" cy="-1258" rx="48.44" ry="31.11"/>
<text xml:space="preserve" text-anchor="middle" x="680.27" y="-1266.5" font-family="Helvetica,sans-Serif" font-size="10.00" fill="#ffffff">src.</text>
<text xml:space="preserve" text-anchor="middle" x="680.27" y="-1254.5" font-family="Helvetica,sans-Serif" font-size="10.00" fill="#ffffff">helpers.</text>
<text xml:space="preserve" text-anchor="middle" x="680.27" y="-1242.5" font-family="Helvetica,sans-Serif" font-size="10.00" fill="#ffffff">style_loader</text>
</g>
<!-- PySide6&#45;&gt;src_helpers_style_loader -->
<g id="edge17" class="edge">
<title>PySide6&#45;&gt;src_helpers_style_loader</title><style>.edge>path:hover{stroke-width:8}</style>
<path fill="none" stroke="black" d="M257.65,-1195.9C274.53,-1198.64 296.02,-1202.07 315.17,-1205 423.36,-1221.53 549.82,-1239.68 621.64,-1249.87"/>
<polygon fill="#d92626" stroke="black" points="620.79,-1253.28 631.18,-1251.22 621.77,-1246.35 620.79,-1253.28"/>
</g>
<!-- PySide6_QtCore -->
<g id="node12" class="node">
<title>PySide6_QtCore</title><style>.edge>path:hover{stroke-width:8}</style>
<ellipse fill="#ce3b3b" stroke="black" cx="226.71" cy="-1099" rx="52.47" ry="18"/>
<text xml:space="preserve" text-anchor="middle" x="226.71" y="-1095.5" font-family="Helvetica,sans-Serif" font-size="10.00" fill="#ffffff">PySide6.QtCore</text>
</g>
<!-- PySide6_QtCore&#45;&gt;qasync -->
<g id="edge18" class="edge">
<title>PySide6_QtCore&#45;&gt;qasync</title><style>.edge>path:hover{stroke-width:8}</style>
<path fill="none" stroke="black" d="M381.05,-1061C422.53,-1059.13 467.77,-1076.38 497.02,-1090.29"/>
<polygon fill="#ce3b3b" stroke="black" points="495.16,-1093.27 505.68,-1094.55 498.25,-1086.99 495.16,-1093.27"/>
</g>
<!-- PySide6_QtCore&#45;&gt;src_app_application -->
<g id="edge19" class="edge">
<title>PySide6_QtCore&#45;&gt;src_app_application</title><style>.edge>path:hover{stroke-width:8}</style>
<path fill="none" stroke="black" d="M263.48,-1085.69C293.77,-1075.48 338.59,-1062.82 379.05,-1061"/>
<path fill="none" stroke="black" d="M381.05,-1061C468.81,-1057.04 491.34,-1064.43 577.8,-1080 589.28,-1082.07 668.54,-1102.43 679.27,-1107"/>
</g>
<!-- PySide6_QtCore&#45;&gt;src_helpers_style_loader -->
<g id="edge20" class="edge">
<title>PySide6_QtCore&#45;&gt;src_helpers_style_loader</title><style>.edge>path:hover{stroke-width:8}</style>
<path fill="none" stroke="black" d="M264.28,-1111.88C343.97,-1139.94 533.58,-1206.7 626.34,-1239.36"/>
<polygon fill="#ce3b3b" stroke="black" points="625.13,-1242.65 635.73,-1242.67 627.46,-1236.05 625.13,-1242.65"/>
</g>
<!-- PySide6_QtGui -->
<g id="node13" class="node">
<title>PySide6_QtGui</title><style>.edge>path:hover{stroke-width:8}</style>
<ellipse fill="#c24747" stroke="black" cx="226.71" cy="-1385" rx="48.86" ry="18"/>
<text xml:space="preserve" text-anchor="middle" x="226.71" y="-1381.5" font-family="Helvetica,sans-Serif" font-size="10.00" fill="#ffffff">PySide6.QtGui</text>
</g>
<!-- PySide6_QtGui&#45;&gt;src_app_application -->
<g id="edge21" class="edge">
<title>PySide6_QtGui&#45;&gt;src_app_application</title><style>.edge>path:hover{stroke-width:8}</style>
<path fill="none" stroke="black" d="M381.05,-1385C446.39,-1380.86 463.32,-1392.45 528.36,-1385"/>
</g>
<!-- PySide6_QtGui&#45;&gt;src_helpers_style_loader -->
<g id="edge22" class="edge">
<title>PySide6_QtGui&#45;&gt;src_helpers_style_loader</title><style>.edge>path:hover{stroke-width:8}</style>
<path fill="none" stroke="black" d="M381.05,-1385C448.53,-1380.72 464.39,-1368.89 528.36,-1347"/>
<path fill="none" stroke="black" d="M275.81,-1386.55C305.58,-1387.13 344.57,-1387.19 379.05,-1385"/>
</g>
<!-- PySide6_QtWidgets -->
<g id="node14" class="node">
<title>PySide6_QtWidgets</title><style>.edge>path:hover{stroke-width:8}</style>
<ellipse fill="#ce3b3b" stroke="black" cx="226.71" cy="-1288" rx="44.19" ry="22.63"/>
<text xml:space="preserve" text-anchor="middle" x="226.71" y="-1290.5" font-family="Helvetica,sans-Serif" font-size="10.00" fill="#ffffff">PySide6.</text>
<text xml:space="preserve" text-anchor="middle" x="226.71" y="-1278.5" font-family="Helvetica,sans-Serif" font-size="10.00" fill="#ffffff">QtWidgets</text>
</g>
<!-- PySide6_QtWidgets&#45;&gt;qasync -->
<g id="edge23" class="edge">
<title>PySide6_QtWidgets&#45;&gt;qasync</title><style>.edge>path:hover{stroke-width:8}</style>
<path fill="none" stroke="black" d="M257.6,-1271.65C299.84,-1248.37 379.17,-1203.92 444.93,-1163 463.57,-1151.4 484.05,-1137.67 500.06,-1126.7"/>
<polygon fill="#ce3b3b" stroke="black" points="501.89,-1129.69 508.14,-1121.14 497.92,-1123.93 501.89,-1129.69"/>
</g>
<!-- PySide6_QtWidgets&#45;&gt;src_app_application -->
<g id="edge24" class="edge">
<title>PySide6_QtWidgets&#45;&gt;src_app_application</title><style>.edge>path:hover{stroke-width:8}</style>
<path fill="none" stroke="black" d="M381.05,-1347C413.83,-1355.26 494.93,-1390 528.36,-1385"/>
<path fill="none" stroke="black" d="M530.36,-1385C605.59,-1373.75 774.96,-1278.5 848.2,-1258"/>
</g>
<!-- PySide6_QtWidgets&#45;&gt;src_helpers_style_loader -->
<g id="edge25" class="edge">
<title>PySide6_QtWidgets&#45;&gt;src_helpers_style_loader</title><style>.edge>path:hover{stroke-width:8}</style>
<path fill="none" stroke="black" d="M381.05,-1347C444.54,-1363 466.42,-1368.2 528.36,-1347"/>
<path fill="none" stroke="black" d="M530.36,-1347C551.85,-1339.65 557.8,-1338.77 577.8,-1328 594.95,-1318.76 597.77,-1314.07 613.8,-1303 621.3,-1297.82 629.3,-1292.31 637.03,-1286.99"/>
<polygon fill="#ce3b3b" stroke="black" points="638.77,-1290.04 645.03,-1281.49 634.81,-1284.27 638.77,-1290.04"/>
<path fill="none" stroke="black" d="M260,-1303.32C290.12,-1316.94 336.66,-1336.32 379.05,-1347"/>
</g>
<!-- qasync&#45;&gt;src_app_application -->
<g id="edge26" class="edge">
<title>qasync&#45;&gt;src_app_application</title><style>.edge>path:hover{stroke-width:8}</style>
<path fill="none" stroke="black" d="M556.61,-1101.02C587.36,-1095.33 639.19,-1089.93 679.27,-1107"/>
</g>
<!-- requests_cache -->
<g id="node16" class="node">
<title>requests_cache</title><style>.edge>path:hover{stroke-width:8}</style>
<ellipse fill="#5372b6" stroke="black" cx="69.12" cy="-18" rx="51.11" ry="18"/>
<text xml:space="preserve" text-anchor="middle" x="69.12" y="-14.5" font-family="Helvetica,sans-Serif" font-size="10.00" fill="#ffffff">requests_cache</text>
</g>
<!-- requests_cache&#45;&gt;src_app_weather_forecast_client -->
<g id="edge27" class="edge">
<title>requests_cache&#45;&gt;src_app_weather_forecast_client</title><style>.edge>path:hover{stroke-width:8}</style>
<path fill="none" stroke="black" d="M227.71,-72C359.14,-72 512.09,-72 602.01,-72"/>
<polygon fill="#5372b6" stroke="black" points="601.95,-75.5 611.95,-72 601.95,-68.5 601.95,-75.5"/>
<path fill="none" stroke="black" d="M104.68,-31.35C146.63,-47.34 213.34,-72 225.71,-72"/>
</g>
<!-- retry_requests -->
<g id="node17" class="node">
<title>retry_requests</title><style>.edge>path:hover{stroke-width:8}</style>
<ellipse fill="#6353b6" stroke="black" cx="69.12" cy="-72" rx="47.05" ry="18"/>
<text xml:space="preserve" text-anchor="middle" x="69.12" y="-68.5" font-family="Helvetica,sans-Serif" font-size="10.00" fill="#ffffff">retry_requests</text>
</g>
<!-- retry_requests&#45;&gt;src_app_weather_forecast_client -->
<g id="edge28" class="edge">
<title>retry_requests&#45;&gt;src_app_weather_forecast_client</title><style>.edge>path:hover{stroke-width:8}</style>
<path fill="none" stroke="black" d="M116.41,-72C147.36,-72 188.97,-72 225.71,-72"/>
</g>
<!-- src -->
<g id="node18" class="node">
<title>src</title><style>.edge>path:hover{stroke-width:8}</style>
<ellipse fill="#9506ef" stroke="black" cx="226.71" cy="-1439" rx="27" ry="18"/>
<text xml:space="preserve" text-anchor="middle" x="226.71" y="-1435.5" font-family="Helvetica,sans-Serif" font-size="10.00" fill="#ffffff">src</text>
</g>
<!-- src_api -->
<g id="node19" class="node">
<title>src_api</title><style>.edge>path:hover{stroke-width:8}</style>
<ellipse fill="#9b22e7" stroke="black" cx="1139.34" cy="-1164" rx="27.21" ry="18"/>
<text xml:space="preserve" text-anchor="middle" x="1139.34" y="-1160.5" font-family="Helvetica,sans-Serif" font-size="10.00" fill="#ffffff">src.api</text>
</g>
<!-- src_main -->
<g id="node38" class="node">
<title>src_main</title><style>.edge>path:hover{stroke-width:8}</style>
<ellipse fill="#5f3479" stroke="black" cx="1259.66" cy="-1064" rx="32.17" ry="18"/>
<text xml:space="preserve" text-anchor="middle" x="1259.66" y="-1060.5" font-family="Helvetica,sans-Serif" font-size="10.00" fill="#ffffff">src.main</text>
</g>
<!-- src_api&#45;&gt;src_main -->
<g id="edge29" class="edge">
<title>src_api&#45;&gt;src_main</title><style>.edge>path:hover{stroke-width:8}</style>
<path fill="none" stroke="black" d="M1162.74,-1154.25C1172.07,-1149.67 1182.74,-1143.74 1191.49,-1137 1209.35,-1123.25 1226.5,-1104.48 1239,-1089.42"/>
<polygon fill="#9b22e7" stroke="black" points="1241.62,-1091.75 1245.19,-1081.78 1236.18,-1087.34 1241.62,-1091.75"/>
</g>
<!-- src_api_app&#45;&gt;src_main -->
<g id="edge30" class="edge">
<title>src_api_app&#45;&gt;src_main</title><style>.edge>path:hover{stroke-width:8}</style>
<path fill="none" stroke="black" d="M1040.04,-781.35C1071.18,-785.4 1114.11,-796.24 1138.34,-825"/>
</g>
<!-- src_api_models&#45;&gt;src_api_time_client -->
<g id="edge31" class="edge">
<title>src_api_models&#45;&gt;src_api_time_client</title><style>.edge>path:hover{stroke-width:8}</style>
<path fill="none" stroke="black" d="M576.26,-402.01C591.45,-403.33 608.52,-404.82 624.33,-406.2"/>
<polygon fill="#8e40c0" stroke="black" points="623.79,-409.67 634.06,-407.05 624.4,-402.7 623.79,-409.67"/>
</g>
<!-- src_api_routes&#45;&gt;src_api_app -->
<g id="edge32" class="edge">
<title>src_api_routes&#45;&gt;src_api_app</title><style>.edge>path:hover{stroke-width:8}</style>
<path fill="none" stroke="black" d="M877.06,-712.48C901.76,-725.8 938.52,-745.62 965.49,-760.16"/>
<polygon fill="#723399" stroke="black" points="963.51,-763.07 973.97,-764.73 966.83,-756.91 963.51,-763.07"/>
</g>
<!-- src_api_time_providers&#45;&gt;src_api_routes -->
<g id="edge33" class="edge">
<title>src_api_time_providers&#45;&gt;src_api_routes</title><style>.edge>path:hover{stroke-width:8}</style>
<path fill="none" stroke="black" d="M734.55,-678.26C754.17,-681.66 776.36,-685.52 795.9,-688.91"/>
<polygon fill="#893db8" stroke="black" points="795.11,-692.33 805.56,-690.59 796.31,-685.43 795.11,-692.33"/>
</g>
<!-- src_app -->
<g id="node25" class="node">
<title>src_app</title><style>.edge>path:hover{stroke-width:8}</style>
<ellipse fill="#963bce" stroke="black" cx="1139.34" cy="-1110" rx="29.01" ry="18"/>
<text xml:space="preserve" text-anchor="middle" x="1139.34" y="-1106.5" font-family="Helvetica,sans-Serif" font-size="10.00" fill="#ffffff">src.app</text>
</g>
<!-- src_app&#45;&gt;src_main -->
<g id="edge34" class="edge">
<title>src_app&#45;&gt;src_main</title><style>.edge>path:hover{stroke-width:8}</style>
<path fill="none" stroke="black" d="M1164.57,-1100.58C1181.19,-1094.12 1203.53,-1085.43 1222.28,-1078.15"/>
<polygon fill="#963bce" stroke="black" points="1223.36,-1081.48 1231.42,-1074.59 1220.83,-1074.95 1223.36,-1081.48"/>
</g>
<!-- src_app_application&#45;&gt;src_main -->
<g id="edge35" class="edge">
<title>src_app_application&#45;&gt;src_main</title><style>.edge>path:hover{stroke-width:8}</style>
<path fill="none" stroke="black" d="M1034.92,-1102.18C1061.51,-1086.84 1100.74,-1067.98 1138.34,-1064"/>
</g>
<!-- src_app_weather_forecast_client&#45;&gt;src_app_weather_forecast_gather -->
<g id="edge36" class="edge">
<title>src_app_weather_forecast_client&#45;&gt;src_app_weather_forecast_gather</title><style>.edge>path:hover{stroke-width:8}</style>
<path fill="none" stroke="black" d="M728.66,-99.54C748.04,-110.8 770.64,-123.93 790.94,-135.73"/>
<polygon fill="#833ab0" stroke="black" points="788.98,-138.64 799.39,-140.63 792.5,-132.58 788.98,-138.64"/>
</g>
<!-- src_app_weather_forecast_params -->
<g id="node29" class="node">
<title>src_app_weather_forecast_params</title><style>.edge>path:hover{stroke-width:8}</style>
<ellipse fill="#9347c2" stroke="black" cx="680.27" cy="-169" rx="66.47" ry="39.6"/>
<text xml:space="preserve" text-anchor="middle" x="680.27" y="-183.5" font-family="Helvetica,sans-Serif" font-size="10.00" fill="#ffffff">src.</text>
<text xml:space="preserve" text-anchor="middle" x="680.27" y="-171.5" font-family="Helvetica,sans-Serif" font-size="10.00" fill="#ffffff">app.</text>
<text xml:space="preserve" text-anchor="middle" x="680.27" y="-159.5" font-family="Helvetica,sans-Serif" font-size="10.00" fill="#ffffff">weather_forecast.</text>
<text xml:space="preserve" text-anchor="middle" x="680.27" y="-147.5" font-family="Helvetica,sans-Serif" font-size="10.00" fill="#ffffff">params</text>
</g>
<!-- src_app_weather_forecast_params&#45;&gt;src_app_weather_forecast_gather -->
<g id="edge37" class="edge">
<title>src_app_weather_forecast_params&#45;&gt;src_app_weather_forecast_gather</title><style>.edge>path:hover{stroke-width:8}</style>
<path fill="none" stroke="black" d="M746.77,-169C754.71,-169 762.89,-169 770.99,-169"/>
<polygon fill="#9347c2" stroke="black" points="770.83,-172.5 780.83,-169 770.83,-165.5 770.83,-172.5"/>
</g>
<!-- src_app_weather_forecast_parsers&#45;&gt;src_app_weather_forecast_gather -->
<g id="edge38" class="edge">
<title>src_app_weather_forecast_parsers&#45;&gt;src_app_weather_forecast_gather</title><style>.edge>path:hover{stroke-width:8}</style>
<path fill="none" stroke="black" d="M720.41,-273.11C744.29,-253.66 774.98,-228.65 800.31,-208.02"/>
<polygon fill="#833ab0" stroke="black" points="802.31,-210.91 807.85,-201.88 797.88,-205.48 802.31,-210.91"/>
</g>
<!-- src_helpers -->
<g id="node31" class="node">
<title>src_helpers</title><style>.edge>path:hover{stroke-width:8}</style>
<ellipse fill="#a010f9" stroke="black" cx="680.27" cy="-1061" rx="38.49" ry="18"/>
<text xml:space="preserve" text-anchor="middle" x="680.27" y="-1057.5" font-family="Helvetica,sans-Serif" font-size="10.00" fill="#ffffff">src.helpers</text>
</g>
<!-- src_helpers&#45;&gt;src_api_app -->
<g id="edge39" class="edge">
<title>src_helpers&#45;&gt;src_api_app</title><style>.edge>path:hover{stroke-width:8}</style>
<path fill="none" stroke="black" d="M715.81,-1053.9C765.72,-1042.04 858.3,-1013.77 915.67,-958 959.02,-915.86 982.8,-847.18 993.45,-808.28"/>
<polygon fill="#a010f9" stroke="black" points="996.82,-809.25 995.96,-798.69 990.04,-807.48 996.82,-809.25"/>
</g>
<!-- src_helpers&#45;&gt;src_app_application -->
<g id="edge40" class="edge">
<title>src_helpers&#45;&gt;src_app_application</title><style>.edge>path:hover{stroke-width:8}</style>
<path fill="none" stroke="black" d="M850.2,-1064C887.68,-1067.93 927.24,-1084.02 956.35,-1098.4"/>
<polygon fill="#a010f9" stroke="black" points="954.73,-1101.5 965.23,-1102.91 957.9,-1095.26 954.73,-1101.5"/>
</g>
<!-- src_helpers&#45;&gt;src_main -->
<g id="edge41" class="edge">
<title>src_helpers&#45;&gt;src_main</title><style>.edge>path:hover{stroke-width:8}</style>
<path fill="none" stroke="black" d="M719.17,-1059.82C753.08,-1059.2 804.1,-1059.37 848.2,-1064"/>
<path fill="none" stroke="black" d="M850.2,-1064C977.57,-1077.37 1010.99,-1077.47 1138.34,-1064"/>
<path fill="none" stroke="black" d="M1140.34,-1064C1165.35,-1060.96 1193.55,-1060.83 1216.14,-1061.52"/>
<polygon fill="#a010f9" stroke="black" points="1215.76,-1065.01 1225.89,-1061.89 1216.03,-1058.02 1215.76,-1065.01"/>
</g>
<!-- src_helpers_config -->
<g id="node32" class="node">
<title>src_helpers_config</title><style>.edge>path:hover{stroke-width:8}</style>
<ellipse fill="#982fdb" stroke="black" cx="680.27" cy="-918" rx="35.71" ry="31.11"/>
<text xml:space="preserve" text-anchor="middle" x="680.27" y="-926.5" font-family="Helvetica,sans-Serif" font-size="10.00" fill="#ffffff">src.</text>
<text xml:space="preserve" text-anchor="middle" x="680.27" y="-914.5" font-family="Helvetica,sans-Serif" font-size="10.00" fill="#ffffff">helpers.</text>
<text xml:space="preserve" text-anchor="middle" x="680.27" y="-902.5" font-family="Helvetica,sans-Serif" font-size="10.00" fill="#ffffff">config</text>
</g>
<!-- src_helpers_config&#45;&gt;src_api_app -->
<g id="edge42" class="edge">
<title>src_helpers_config&#45;&gt;src_api_app</title><style>.edge>path:hover{stroke-width:8}</style>
<path fill="none" stroke="black" d="M712.98,-904.62C732.84,-896.46 759.08,-886.08 782.74,-878 811.41,-868.21 819.53,-868.77 848.2,-859"/>
</g>
<!-- src_helpers_logging_setup -->
<g id="node36" class="node">
<title>src_helpers_logging_setup</title><style>.edge>path:hover{stroke-width:8}</style>
<ellipse fill="#7735a1" stroke="black" cx="849.2" cy="-918" rx="53.74" ry="31.11"/>
<text xml:space="preserve" text-anchor="middle" x="849.2" y="-926.5" font-family="Helvetica,sans-Serif" font-size="10.00" fill="#ffffff">src.</text>
<text xml:space="preserve" text-anchor="middle" x="849.2" y="-914.5" font-family="Helvetica,sans-Serif" font-size="10.00" fill="#ffffff">helpers.</text>
<text xml:space="preserve" text-anchor="middle" x="849.2" y="-902.5" font-family="Helvetica,sans-Serif" font-size="10.00" fill="#ffffff">logging_setup</text>
</g>
<!-- src_helpers_config&#45;&gt;src_helpers_logging_setup -->
<g id="edge43" class="edge">
<title>src_helpers_config&#45;&gt;src_helpers_logging_setup</title><style>.edge>path:hover{stroke-width:8}</style>
<path fill="none" stroke="black" d="M716.26,-918C735.81,-918 760.79,-918 783.74,-918"/>
<polygon fill="#982fdb" stroke="black" points="783.65,-921.5 793.65,-918 783.65,-914.5 783.65,-921.5"/>
</g>
<!-- src_helpers_config_config -->
<g id="node33" class="node">
<title>src_helpers_config_config</title><style>.edge>path:hover{stroke-width:8}</style>
<ellipse fill="#802db4" stroke="black" cx="529.36" cy="-939" rx="35.71" ry="39.6"/>
<text xml:space="preserve" text-anchor="middle" x="529.36" y="-953.5" font-family="Helvetica,sans-Serif" font-size="10.00" fill="#ffffff">src.</text>
<text xml:space="preserve" text-anchor="middle" x="529.36" y="-941.5" font-family="Helvetica,sans-Serif" font-size="10.00" fill="#ffffff">helpers.</text>
<text xml:space="preserve" text-anchor="middle" x="529.36" y="-929.5" font-family="Helvetica,sans-Serif" font-size="10.00" fill="#ffffff">config.</text>
<text xml:space="preserve" text-anchor="middle" x="529.36" y="-917.5" font-family="Helvetica,sans-Serif" font-size="10.00" fill="#ffffff">config</text>
</g>
<!-- src_helpers_config_config&#45;&gt;src_api_app -->
<g id="edge44" class="edge">
<title>src_helpers_config_config&#45;&gt;src_api_app</title><style>.edge>path:hover{stroke-width:8}</style>
<path fill="none" stroke="black" d="M557.41,-914.08C585.6,-890.76 632.17,-859.42 679.27,-859"/>
</g>
<!-- src_helpers_config_config&#45;&gt;src_helpers_logging_setup -->
<g id="edge45" class="edge">
<title>src_helpers_config_config&#45;&gt;src_helpers_logging_setup</title><style>.edge>path:hover{stroke-width:8}</style>
<path fill="none" stroke="black" d="M564.17,-948.51C579.23,-952.27 597.27,-956.14 613.8,-958 672.51,-964.6 688.69,-969.03 746.74,-958 763.66,-954.78 781.38,-948.8 797.18,-942.42"/>
<polygon fill="#802db4" stroke="black" points="798.52,-945.66 806.39,-938.56 795.81,-939.2 798.52,-945.66"/>
</g>
<!-- src_helpers_config_env_loader_mixin -->
<g id="node34" class="node">
<title>src_helpers_config_env_loader_mixin</title><style>.edge>path:hover{stroke-width:8}</style>
<ellipse fill="#9347c2" stroke="black" cx="380.05" cy="-939" rx="64.88" ry="39.6"/>
<text xml:space="preserve" text-anchor="middle" x="380.05" y="-953.5" font-family="Helvetica,sans-Serif" font-size="10.00" fill="#ffffff">src.</text>
<text xml:space="preserve" text-anchor="middle" x="380.05" y="-941.5" font-family="Helvetica,sans-Serif" font-size="10.00" fill="#ffffff">helpers.</text>
<text xml:space="preserve" text-anchor="middle" x="380.05" y="-929.5" font-family="Helvetica,sans-Serif" font-size="10.00" fill="#ffffff">config.</text>
<text xml:space="preserve" text-anchor="middle" x="380.05" y="-917.5" font-family="Helvetica,sans-Serif" font-size="10.00" fill="#ffffff">env_loader_mixin</text>
</g>
<!-- src_helpers_config_env_loader_mixin&#45;&gt;src_helpers_config_config -->
<g id="edge46" class="edge">
<title>src_helpers_config_env_loader_mixin&#45;&gt;src_helpers_config_config</title><style>.edge>path:hover{stroke-width:8}</style>
<path fill="none" stroke="black" d="M445.24,-939C457.68,-939 470.49,-939 482.22,-939"/>
<polygon fill="#9347c2" stroke="black" points="482.01,-942.5 492.01,-939 482.01,-935.5 482.01,-942.5"/>
</g>
<!-- src_helpers_io_file -->
<g id="node35" class="node">
<title>src_helpers_io_file</title><style>.edge>path:hover{stroke-width:8}</style>
<ellipse fill="#9347c2" stroke="black" cx="529.36" cy="-1288" rx="35.71" ry="31.11"/>
<text xml:space="preserve" text-anchor="middle" x="529.36" y="-1296.5" font-family="Helvetica,sans-Serif" font-size="10.00" fill="#ffffff">src.</text>
<text xml:space="preserve" text-anchor="middle" x="529.36" y="-1284.5" font-family="Helvetica,sans-Serif" font-size="10.00" fill="#ffffff">helpers.</text>
<text xml:space="preserve" text-anchor="middle" x="529.36" y="-1272.5" font-family="Helvetica,sans-Serif" font-size="10.00" fill="#ffffff">io_file</text>
</g>
<!-- src_helpers_io_file&#45;&gt;src_helpers_style_loader -->
<g id="edge47" class="edge">
<title>src_helpers_io_file&#45;&gt;src_helpers_style_loader</title><style>.edge>path:hover{stroke-width:8}</style>
<path fill="none" stroke="black" d="M564.53,-1281.12C581.68,-1277.66 602.92,-1273.38 622.44,-1269.45"/>
<polygon fill="#9347c2" stroke="black" points="623.1,-1272.89 632.21,-1267.48 621.72,-1266.03 623.1,-1272.89"/>
</g>
<!-- src_helpers_logging_setup&#45;&gt;src_main -->
<g id="edge48" class="edge">
<title>src_helpers_logging_setup&#45;&gt;src_main</title><style>.edge>path:hover{stroke-width:8}</style>
<path fill="none" stroke="black" d="M888.58,-896.53C959.25,-858.39 1105.74,-786.31 1138.34,-825"/>
</g>
<!-- src_helpers_style_loader&#45;&gt;src_app_application -->
<g id="edge49" class="edge">
<title>src_helpers_style_loader&#45;&gt;src_app_application</title><style>.edge>path:hover{stroke-width:8}</style>
<path fill="none" stroke="black" d="M727.88,-1264.63C761.88,-1267.89 808.71,-1269.06 848.2,-1258"/>
</g>
<!-- src_node_setup -->
<g id="node39" class="node">
<title>src_node_setup</title><style>.edge>path:hover{stroke-width:8}</style>
<ellipse fill="#893db8" stroke="black" cx="1001.43" cy="-565" rx="49.76" ry="18"/>
<text xml:space="preserve" text-anchor="middle" x="1001.43" y="-561.5" font-family="Helvetica,sans-Serif" font-size="10.00" fill="#ffffff">src.node_setup</text>
</g>
<!-- src_node_setup&#45;&gt;src_main -->
<g id="edge50" class="edge">
<title>src_node_setup&#45;&gt;src_main</title><style>.edge>path:hover{stroke-width:8}</style>
<path fill="none" stroke="black" d="M1008.69,-582.99C1024.84,-627.62 1071.39,-745.54 1138.34,-825"/>
<path fill="none" stroke="black" d="M1140.34,-825C1196.02,-891.07 1233.4,-987.82 1249.57,-1035.41"/>
<polygon fill="#893db8" stroke="black" points="1246.18,-1036.31 1252.66,-1044.69 1252.82,-1034.1 1246.18,-1036.31"/>
</g>
<!-- src_pyside_setup -->
<g id="node40" class="node">
<title>src_pyside_setup</title><style>.edge>path:hover{stroke-width:8}</style>
<ellipse fill="#8e40c0" stroke="black" cx="1139.34" cy="-1013" rx="52.15" ry="22.63"/>
<text xml:space="preserve" text-anchor="middle" x="1139.34" y="-1015.5" font-family="Helvetica,sans-Serif" font-size="10.00" fill="#ffffff">src.</text>
<text xml:space="preserve" text-anchor="middle" x="1139.34" y="-1003.5" font-family="Helvetica,sans-Serif" font-size="10.00" fill="#ffffff">pyside_setup</text>
</g>
<!-- src_pyside_setup&#45;&gt;src_main -->
<g id="edge51" class="edge">
<title>src_pyside_setup&#45;&gt;src_main</title><style>.edge>path:hover{stroke-width:8}</style>
<path fill="none" stroke="black" d="M1177.13,-1028.86C1191.73,-1035.15 1208.45,-1042.36 1222.94,-1048.6"/>
<polygon fill="#8e40c0" stroke="black" points="1221.56,-1051.82 1232.12,-1052.56 1224.33,-1045.39 1221.56,-1051.82"/>
</g>
<!-- src_settings -->
<g id="node41" class="node">
<title>src_settings</title><style>.edge>path:hover{stroke-width:8}</style>
<ellipse fill="#9347c2" stroke="black" cx="69.12" cy="-1439" rx="40.29" ry="18"/>
<text xml:space="preserve" text-anchor="middle" x="69.12" y="-1435.5" font-family="Helvetica,sans-Serif" font-size="10.00" fill="#ffffff">src.settings</text>
</g>
<!-- src_settings&#45;&gt;src -->
<g id="edge52" class="edge">
<title>src_settings&#45;&gt;src</title><style>.edge>path:hover{stroke-width:8}</style>
<path fill="none" stroke="black" d="M109.78,-1439C133.81,-1439 164.29,-1439 187.97,-1439"/>
<polygon fill="#9347c2" stroke="black" points="187.8,-1442.5 197.8,-1439 187.8,-1435.5 187.8,-1442.5"/>
</g>
<!-- structlog -->
<g id="node42" class="node">
<title>structlog</title><style>.edge>path:hover{stroke-width:8}</style>
<ellipse fill="#f906e6" stroke="black" cx="226.71" cy="-728" rx="32.17" ry="18"/>
<text xml:space="preserve" text-anchor="middle" x="226.71" y="-724.5" font-family="Helvetica,sans-Serif" font-size="10.00" fill="#ffffff">structlog</text>
</g>
<!-- structlog&#45;&gt;src_api_routes -->
<g id="edge53" class="edge">
<title>structlog&#45;&gt;src_api_routes</title><style>.edge>path:hover{stroke-width:8}</style>
<path fill="none" stroke="black" d="M530.36,-728C596.12,-720.48 613.11,-729.67 679.27,-728"/>
</g>
<!-- structlog&#45;&gt;src_api_time_client -->
<g id="edge54" class="edge">
<title>structlog&#45;&gt;src_api_time_client</title><style>.edge>path:hover{stroke-width:8}</style>
<path fill="none" stroke="black" d="M530.36,-482C569.68,-477.44 609.95,-457.11 638.67,-439.37"/>
<polygon fill="#f906e6" stroke="black" points="640.49,-442.36 647.06,-434.04 636.74,-436.45 640.49,-442.36"/>
<path fill="none" stroke="black" d="M243.17,-712.5C254.26,-700.76 268.98,-683.83 279.17,-667 301.06,-630.86 285.88,-609.45 315.17,-579 387.34,-503.98 424.96,-494 528.36,-482"/>
</g>
<!-- structlog&#45;&gt;src_api_time_providers -->
<g id="edge55" class="edge">
<title>structlog&#45;&gt;src_api_time_providers</title><style>.edge>path:hover{stroke-width:8}</style>
<path fill="none" stroke="black" d="M258.96,-729.98C313.71,-733 430.43,-737.48 528.36,-728"/>
<path fill="none" stroke="black" d="M530.36,-728C565.18,-724.02 601.8,-709.66 630.02,-696.1"/>
<polygon fill="#f906e6" stroke="black" points="631.24,-699.4 638.65,-691.84 628.14,-693.13 631.24,-699.4"/>
</g>
<!-- structlog&#45;&gt;src_app_application -->
<g id="edge56" class="edge">
<title>structlog&#45;&gt;src_app_application</title><style>.edge>path:hover{stroke-width:8}</style>
<path fill="none" stroke="black" d="M530.36,-1023C576.62,-1031.38 571.94,-1066.62 613.8,-1088 640.78,-1101.78 651.75,-1094.33 679.27,-1107"/>
<path fill="none" stroke="black" d="M681.27,-1107C772.14,-1148.84 752.19,-1286.09 848.2,-1258"/>
<path fill="none" stroke="black" d="M850.2,-1258C903.65,-1242.36 948.6,-1194.18 975.03,-1159.84"/>
<polygon fill="#f906e6" stroke="black" points="977.55,-1162.31 980.75,-1152.21 971.95,-1158.11 977.55,-1162.31"/>
</g>
<!-- structlog&#45;&gt;src_app_weather_forecast_gather -->
<g id="edge57" class="edge">
<title>structlog&#45;&gt;src_app_weather_forecast_gather</title><style>.edge>path:hover{stroke-width:8}</style>
<path fill="none" stroke="black" d="M681.27,-482C711.24,-470.25 725.1,-474.84 746.74,-451 806.52,-385.12 831.71,-281.45 841.85,-219.85"/>
<polygon fill="#f906e6" stroke="black" points="845.3,-220.41 843.39,-209.98 838.39,-219.32 845.3,-220.41"/>
<path fill="none" stroke="black" d="M530.36,-482C593.71,-462.84 617.65,-506.15 679.27,-482"/>
</g>
<!-- structlog&#45;&gt;src_helpers_logging_setup -->
<g id="edge58" class="edge">
<title>structlog&#45;&gt;src_helpers_logging_setup</title><style>.edge>path:hover{stroke-width:8}</style>
<path fill="none" stroke="black" d="M227.85,-746.26C229.28,-794.19 240.24,-924.31 315.17,-988 388.33,-1050.19 433.07,-1011.19 528.36,-1023"/>
<path fill="none" stroke="black" d="M530.36,-1023C595.58,-1034.82 613.91,-1025.97 679.27,-1015"/>
<path fill="none" stroke="black" d="M681.27,-1015C733.16,-1006.29 737.13,-980.24 782.74,-954 788.08,-950.93 793.69,-947.76 799.29,-944.63"/>
<polygon fill="#f906e6" stroke="black" points="800.93,-947.72 807.97,-939.81 797.53,-941.6 800.93,-947.72"/>
</g>
<!-- structlog&#45;&gt;src_node_setup -->
<g id="edge59" class="edge">
<title>structlog&#45;&gt;src_node_setup</title><style>.edge>path:hover{stroke-width:8}</style>
<path fill="none" stroke="black" d="M681.27,-482C782.3,-442.39 908.68,-506.93 967.49,-543.11"/>
<polygon fill="#f906e6" stroke="black" points="965.39,-545.93 975.72,-548.28 969.11,-540 965.39,-545.93"/>
</g>
<!-- structlog&#45;&gt;src_pyside_setup -->
<g id="edge60" class="edge">
<title>structlog&#45;&gt;src_pyside_setup</title><style>.edge>path:hover{stroke-width:8}</style>
<path fill="none" stroke="black" d="M681.27,-1015C821.14,-991.53 988.49,-999.85 1076.78,-1007.02"/>
<polygon fill="#f906e6" stroke="black" points="1076.42,-1010.5 1086.67,-1007.85 1077,-1003.53 1076.42,-1010.5"/>
</g>
<!-- uvicorn -->
<g id="node43" class="node">
<title>uvicorn</title><style>.edge>path:hover{stroke-width:8}</style>
<ellipse fill="#c0407b" stroke="black" cx="529.36" cy="-566" rx="28.56" ry="18"/>
<text xml:space="preserve" text-anchor="middle" x="529.36" y="-562.5" font-family="Helvetica,sans-Serif" font-size="10.00" fill="#ffffff">uvicorn</text>
</g>
<!-- uvicorn&#45;&gt;src_api_app -->
<g id="edge61" class="edge">
<title>uvicorn&#45;&gt;src_api_app</title><style>.edge>path:hover{stroke-width:8}</style>
<path fill="none" stroke="black" d="M558.13,-564.75C588.07,-563.69 637.12,-562.81 679.27,-566"/>
</g>
</g>
</svg>
