<?xml version="1.0" encoding="UTF-8" standalone="no"?>
<!DOCTYPE svg PUBLIC "-//W3C//DTD SVG 1.1//EN"
 "http://www.w3.org/Graphics/SVG/1.1/DTD/svg11.dtd">
<!-- Generated by graphviz version 14.1.5 (20260411.2331)
 -->
<!-- Title: G Pages: 1 -->
<svg width="975pt" height="662pt"
 viewBox="0.00 0.00 975.00 662.00" xmlns="http://www.w3.org/2000/svg" xmlns:xlink="http://www.w3.org/1999/xlink">
<g id="graph0" class="graph" transform="scale(1 1) rotate(0) translate(4 658)">
<title>G</title><style>.edge>path:hover{stroke-width:8}</style>
<polygon fill="white" stroke="none" points="-4,4 -4,-658 970.66,-658 970.66,4 -4,4"/>
<!-- fastapi -->
<g id="node1" class="node">
<title>fastapi</title><style>.edge>path:hover{stroke-width:8}</style>
<ellipse fill="#c2b147" stroke="black" cx="173.11" cy="-18" rx="27.21" ry="18"/>
<text xml:space="preserve" text-anchor="middle" x="173.11" y="-14.5" font-family="Helvetica,sans-Serif" font-size="10.00" fill="#000000">fastapi</text>
</g>
<!-- src_api_app -->
<g id="node12" class="node">
<title>src_api_app</title><style>.edge>path:hover{stroke-width:8}</style>
<ellipse fill="#315672" stroke="black" cx="694.7" cy="-124" rx="38.49" ry="18"/>
<text xml:space="preserve" text-anchor="middle" x="694.7" y="-120.5" font-family="Helvetica,sans-Serif" font-size="10.00" fill="#ffffff">src.api.app</text>
</g>
<!-- fastapi&#45;&gt;src_api_app -->
<g id="edge1" class="edge">
<title>fastapi&#45;&gt;src_api_app</title><style>.edge>path:hover{stroke-width:8}</style>
<path fill="none" stroke="black" d="M200.52,-16.82C245.82,-15.06 341.21,-12.5 421.59,-18"/>
<path fill="none" stroke="black" d="M423.59,-18C508.43,-24.75 538.49,5.28 614.5,-33 642.28,-46.99 664.48,-75.36 678.22,-96.73"/>
<polygon fill="#c2b147" stroke="black" points="675.08,-98.31 683.31,-104.98 681.04,-94.63 675.08,-98.31"/>
</g>
<!-- src_api_routes -->
<g id="node13" class="node">
<title>src_api_routes</title><style>.edge>path:hover{stroke-width:8}</style>
<ellipse fill="#43779d" stroke="black" cx="560.76" cy="-60" rx="45.25" ry="18"/>
<text xml:space="preserve" text-anchor="middle" x="560.76" y="-56.5" font-family="Helvetica,sans-Serif" font-size="10.00" fill="#ffffff">src.api.routes</text>
</g>
<!-- fastapi&#45;&gt;src_api_routes -->
<g id="edge2" class="edge">
<title>fastapi&#45;&gt;src_api_routes</title><style>.edge>path:hover{stroke-width:8}</style>
<path fill="none" stroke="black" d="M423.59,-18C456.89,-20.28 492.91,-31.82 519.54,-42.23"/>
<polygon fill="#c2b147" stroke="black" points="517.99,-45.38 528.57,-45.87 520.61,-38.89 517.99,-45.38"/>
</g>
<!-- fastapi_middleware -->
<g id="node2" class="node">
<title>fastapi_middleware</title><style>.edge>path:hover{stroke-width:8}</style>
<ellipse fill="#b6a853" stroke="black" cx="289.71" cy="-187" rx="46.32" ry="22.63"/>
<text xml:space="preserve" text-anchor="middle" x="289.71" y="-189.5" font-family="Helvetica,sans-Serif" font-size="10.00" fill="#000000">fastapi.</text>
<text xml:space="preserve" text-anchor="middle" x="289.71" y="-177.5" font-family="Helvetica,sans-Serif" font-size="10.00" fill="#000000">middleware</text>
</g>
<!-- fastapi_middleware&#45;&gt;src_api_app -->
<g id="edge3" class="edge">
<title>fastapi_middleware&#45;&gt;src_api_app</title><style>.edge>path:hover{stroke-width:8}</style>
<path fill="none" stroke="black" d="M335.78,-190.3C361.13,-191.33 393.28,-191.27 421.59,-187"/>
</g>
<!-- fastapi_middleware_cors -->
<g id="node3" class="node">
<title>fastapi_middleware_cors</title><style>.edge>path:hover{stroke-width:8}</style>
<ellipse fill="#b6a853" stroke="black" cx="289.71" cy="-115" rx="48.44" ry="31.11"/>
<text xml:space="preserve" text-anchor="middle" x="289.71" y="-123.5" font-family="Helvetica,sans-Serif" font-size="10.00" fill="#000000">fastapi.</text>
<text xml:space="preserve" text-anchor="middle" x="289.71" y="-111.5" font-family="Helvetica,sans-Serif" font-size="10.00" fill="#000000">middleware.</text>
<text xml:space="preserve" text-anchor="middle" x="289.71" y="-99.5" font-family="Helvetica,sans-Serif" font-size="10.00" fill="#000000">cors</text>
</g>
<!-- fastapi_middleware_cors&#45;&gt;src_api_app -->
<g id="edge4" class="edge">
<title>fastapi_middleware_cors&#45;&gt;src_api_app</title><style>.edge>path:hover{stroke-width:8}</style>
<path fill="none" stroke="black" d="M322.29,-138.26C353.93,-160.47 400.82,-190.13 421.59,-187"/>
<path fill="none" stroke="black" d="M423.59,-187C483.43,-177.98 502.41,-206.33 559.76,-187"/>
<path fill="none" stroke="black" d="M561.76,-187C596.01,-175.46 632.98,-157.27 659.04,-143.39"/>
<polygon fill="#b6a853" stroke="black" points="660.69,-146.48 667.83,-138.65 657.36,-140.32 660.69,-146.48"/>
</g>
<!-- main_py -->
<g id="node4" class="node">
<title>main_py</title><style>.edge>path:hover{stroke-width:8}</style>
<ellipse fill="#4b713c" stroke="black" cx="936.29" cy="-477" rx="30.37" ry="18"/>
<text xml:space="preserve" text-anchor="middle" x="936.29" y="-473.5" font-family="Helvetica,sans-Serif" font-size="10.00" fill="#ffffff">main.py</text>
</g>
<!-- PySide6 -->
<g id="node5" class="node">
<title>PySide6</title><style>.edge>path:hover{stroke-width:8}</style>
<ellipse fill="#d92626" stroke="black" cx="52.47" cy="-510" rx="31.72" ry="18"/>
<text xml:space="preserve" text-anchor="middle" x="52.47" y="-506.5" font-family="Helvetica,sans-Serif" font-size="10.00" fill="#ffffff">PySide6</text>
</g>
<!-- qasync -->
<g id="node9" class="node">
<title>qasync</title><style>.edge>path:hover{stroke-width:8}</style>
<ellipse fill="#46a47c" stroke="black" cx="289.71" cy="-588" rx="28.56" ry="18"/>
<text xml:space="preserve" text-anchor="middle" x="289.71" y="-584.5" font-family="Helvetica,sans-Serif" font-size="10.00" fill="#000000">qasync</text>
</g>
<!-- PySide6&#45;&gt;qasync -->
<g id="edge5" class="edge">
<title>PySide6&#45;&gt;qasync</title><style>.edge>path:hover{stroke-width:8}</style>
<path fill="none" stroke="black" d="M74.28,-523.35C105.34,-543.11 161.34,-578.03 172.11,-580"/>
<path fill="none" stroke="black" d="M174.11,-580C198.88,-584.54 227.11,-586.55 249.35,-587.42"/>
<polygon fill="#d92626" stroke="black" points="249.09,-590.91 259.19,-587.73 249.31,-583.91 249.09,-590.91"/>
</g>
<!-- src_app_application -->
<g id="node15" class="node">
<title>src_app_application</title><style>.edge>path:hover{stroke-width:8}</style>
<ellipse fill="#345c79" stroke="black" cx="694.7" cy="-494" rx="44.19" ry="31.11"/>
<text xml:space="preserve" text-anchor="middle" x="694.7" y="-502.5" font-family="Helvetica,sans-Serif" font-size="10.00" fill="#ffffff">src.</text>
<text xml:space="preserve" text-anchor="middle" x="694.7" y="-490.5" font-family="Helvetica,sans-Serif" font-size="10.00" fill="#ffffff">app.</text>
<text xml:space="preserve" text-anchor="middle" x="694.7" y="-478.5" font-family="Helvetica,sans-Serif" font-size="10.00" fill="#ffffff">application</text>
</g>
<!-- PySide6&#45;&gt;src_app_application -->
<g id="edge6" class="edge">
<title>PySide6&#45;&gt;src_app_application</title><style>.edge>path:hover{stroke-width:8}</style>
<path fill="none" stroke="black" d="M423.59,-553C445.57,-547.29 450.13,-542.89 471.02,-534 510.83,-517.06 516.5,-494 559.76,-494"/>
<path fill="none" stroke="black" d="M290.71,-504C352.63,-508.88 361.47,-568.62 421.59,-553"/>
</g>
<!-- src_helpers_style_loader -->
<g id="node20" class="node">
<title>src_helpers_style_loader</title><style>.edge>path:hover{stroke-width:8}</style>
<ellipse fill="#3d6c8f" stroke="black" cx="422.59" cy="-494" rx="48.44" ry="31.11"/>
<text xml:space="preserve" text-anchor="middle" x="422.59" y="-502.5" font-family="Helvetica,sans-Serif" font-size="10.00" fill="#ffffff">src.</text>
<text xml:space="preserve" text-anchor="middle" x="422.59" y="-490.5" font-family="Helvetica,sans-Serif" font-size="10.00" fill="#ffffff">helpers.</text>
<text xml:space="preserve" text-anchor="middle" x="422.59" y="-478.5" font-family="Helvetica,sans-Serif" font-size="10.00" fill="#ffffff">style_loader</text>
</g>
<!-- PySide6&#45;&gt;src_helpers_style_loader -->
<g id="edge7" class="edge">
<title>PySide6&#45;&gt;src_helpers_style_loader</title><style>.edge>path:hover{stroke-width:8}</style>
<path fill="none" stroke="black" d="M83.96,-507.31C128.86,-503.79 215.37,-498.65 288.71,-504"/>
<path fill="none" stroke="black" d="M290.71,-504C314.62,-505.88 340.98,-504.53 363.74,-502.28"/>
<polygon fill="#d92626" stroke="black" points="363.87,-505.79 373.44,-501.24 363.12,-498.83 363.87,-505.79"/>
</g>
<!-- PySide6_QtCore -->
<g id="node6" class="node">
<title>PySide6_QtCore</title><style>.edge>path:hover{stroke-width:8}</style>
<ellipse fill="#ce3b3b" stroke="black" cx="52.47" cy="-636" rx="52.47" ry="18"/>
<text xml:space="preserve" text-anchor="middle" x="52.47" y="-632.5" font-family="Helvetica,sans-Serif" font-size="10.00" fill="#ffffff">PySide6.QtCore</text>
</g>
<!-- PySide6_QtCore&#45;&gt;qasync -->
<g id="edge8" class="edge">
<title>PySide6_QtCore&#45;&gt;qasync</title><style>.edge>path:hover{stroke-width:8}</style>
<path fill="none" stroke="black" d="M105.27,-637.12C126.09,-637.05 150.29,-636.31 172.11,-634"/>
<path fill="none" stroke="black" d="M174.11,-634C204.11,-630.82 235.75,-617.24 258.17,-605.65"/>
<polygon fill="#ce3b3b" stroke="black" points="259.59,-608.86 266.75,-601.06 256.28,-602.69 259.59,-608.86"/>
</g>
<!-- PySide6_QtCore&#45;&gt;src_app_application -->
<g id="edge9" class="edge">
<title>PySide6_QtCore&#45;&gt;src_app_application</title><style>.edge>path:hover{stroke-width:8}</style>
<path fill="none" stroke="black" d="M290.71,-634C312.07,-626.28 318.33,-626.09 338.15,-615 378.47,-592.45 376.87,-564.62 421.59,-553"/>
</g>
<!-- PySide6_QtCore&#45;&gt;src_helpers_style_loader -->
<g id="edge10" class="edge">
<title>PySide6_QtCore&#45;&gt;src_helpers_style_loader</title><style>.edge>path:hover{stroke-width:8}</style>
<path fill="none" stroke="black" d="M290.71,-634C312.07,-626.28 321.61,-630.56 338.15,-615 365.38,-589.4 352.22,-569.27 374.15,-539 377.23,-534.74 380.76,-530.55 384.45,-526.55"/>
<polygon fill="#ce3b3b" stroke="black" points="386.66,-529.29 391.15,-519.7 381.66,-524.4 386.66,-529.29"/>
<path fill="none" stroke="black" d="M174.11,-634C224.76,-628.63 240.81,-651.32 288.71,-634"/>
</g>
<!-- PySide6_QtGui -->
<g id="node7" class="node">
<title>PySide6_QtGui</title><style>.edge>path:hover{stroke-width:8}</style>
<ellipse fill="#c24747" stroke="black" cx="52.47" cy="-435" rx="48.86" ry="18"/>
<text xml:space="preserve" text-anchor="middle" x="52.47" y="-431.5" font-family="Helvetica,sans-Serif" font-size="10.00" fill="#ffffff">PySide6.QtGui</text>
</g>
<!-- PySide6_QtGui&#45;&gt;src_app_application -->
<g id="edge11" class="edge">
<title>PySide6_QtGui&#45;&gt;src_app_application</title><style>.edge>path:hover{stroke-width:8}</style>
<path fill="none" stroke="black" d="M290.71,-435C348.53,-441.34 365.69,-418.92 421.59,-435"/>
<path fill="none" stroke="black" d="M100.94,-431.97C148.58,-429.65 223.96,-427.9 288.71,-435"/>
</g>
<!-- PySide6_QtGui&#45;&gt;src_helpers_style_loader -->
<g id="edge12" class="edge">
<title>PySide6_QtGui&#45;&gt;src_helpers_style_loader</title><style>.edge>path:hover{stroke-width:8}</style>
<path fill="none" stroke="black" d="M290.71,-435C321.74,-438.4 353.74,-452.6 378.32,-466.21"/>
<polygon fill="#c24747" stroke="black" points="376.31,-469.09 386.73,-471.02 379.79,-463.02 376.31,-469.09"/>
</g>
<!-- PySide6_QtWidgets -->
<g id="node8" class="node">
<title>PySide6_QtWidgets</title><style>.edge>path:hover{stroke-width:8}</style>
<ellipse fill="#ce3b3b" stroke="black" cx="52.47" cy="-577" rx="44.19" ry="22.63"/>
<text xml:space="preserve" text-anchor="middle" x="52.47" y="-579.5" font-family="Helvetica,sans-Serif" font-size="10.00" fill="#ffffff">PySide6.</text>
<text xml:space="preserve" text-anchor="middle" x="52.47" y="-567.5" font-family="Helvetica,sans-Serif" font-size="10.00" fill="#ffffff">QtWidgets</text>
</g>
<!-- PySide6_QtWidgets&#45;&gt;qasync -->
<g id="edge13" class="edge">
<title>PySide6_QtWidgets&#45;&gt;qasync</title><style>.edge>path:hover{stroke-width:8}</style>
<path fill="none" stroke="black" d="M96.91,-574.88C119.51,-574.59 147.48,-575.49 172.11,-580"/>
</g>
<!-- PySide6_QtWidgets&#45;&gt;src_app_application -->
<g id="edge14" class="edge">
<title>PySide6_QtWidgets&#45;&gt;src_app_application</title><style>.edge>path:hover{stroke-width:8}</style>
<path fill="none" stroke="black" d="M290.71,-542C348.61,-534.58 365.09,-567.68 421.59,-553"/>
</g>
<!-- PySide6_QtWidgets&#45;&gt;src_helpers_style_loader -->
<g id="edge15" class="edge">
<title>PySide6_QtWidgets&#45;&gt;src_helpers_style_loader</title><style>.edge>path:hover{stroke-width:8}</style>
<path fill="none" stroke="black" d="M290.71,-542C319.63,-540 350.14,-529.36 374.42,-518.61"/>
<polygon fill="#ce3b3b" stroke="black" points="375.76,-521.84 383.39,-514.49 372.84,-515.48 375.76,-521.84"/>
<path fill="none" stroke="black" d="M94.05,-568.98C140.77,-560.21 219.92,-546.77 288.71,-542"/>
</g>
<!-- qasync&#45;&gt;src_app_application -->
<g id="edge16" class="edge">
<title>qasync&#45;&gt;src_app_application</title><style>.edge>path:hover{stroke-width:8}</style>
<path fill="none" stroke="black" d="M316.26,-581.05C342.62,-573.91 384.94,-562.52 421.59,-553"/>
</g>
<!-- src -->
<g id="node10" class="node">
<title>src</title><style>.edge>path:hover{stroke-width:8}</style>
<ellipse fill="#068bef" stroke="black" cx="803.91" cy="-531" rx="27" ry="18"/>
<text xml:space="preserve" text-anchor="middle" x="803.91" y="-527.5" font-family="Helvetica,sans-Serif" font-size="10.00" fill="#ffffff">src</text>
</g>
<!-- src&#45;&gt;main_py -->
<g id="edge17" class="edge">
<title>src&#45;&gt;main_py</title><style>.edge>path:hover{stroke-width:8}</style>
<path fill="none" stroke="black" d="M820.23,-516.24C837.15,-500.26 862.81,-477 868.92,-477"/>
</g>
<!-- src_api -->
<g id="node11" class="node">
<title>src_api</title><style>.edge>path:hover{stroke-width:8}</style>
<ellipse fill="#3b8fce" stroke="black" cx="803.91" cy="-477" rx="27.21" ry="18"/>
<text xml:space="preserve" text-anchor="middle" x="803.91" y="-473.5" font-family="Helvetica,sans-Serif" font-size="10.00" fill="#ffffff">src.api</text>
</g>
<!-- src_api&#45;&gt;main_py -->
<g id="edge18" class="edge">
<title>src_api&#45;&gt;main_py</title><style>.edge>path:hover{stroke-width:8}</style>
<path fill="none" stroke="black" d="M831.38,-477C842.91,-477 856.59,-477 868.92,-477"/>
</g>
<!-- src_api_app&#45;&gt;main_py -->
<g id="edge19" class="edge">
<title>src_api_app&#45;&gt;main_py</title><style>.edge>path:hover{stroke-width:8}</style>
<path fill="none" stroke="black" d="M700.08,-142.1C711.35,-185.9 744.6,-299.68 802.91,-377"/>
<path fill="none" stroke="black" d="M869.92,-477C877.77,-477.18 886.16,-477.26 894.21,-477.29"/>
<polygon fill="#315672" stroke="black" points="894.16,-480.79 904.16,-477.29 894.16,-473.79 894.16,-480.79"/>
<path fill="none" stroke="black" d="M804.91,-377C813.96,-389.01 823.27,-384.46 832.92,-396 858.2,-426.22 829.54,-476.1 868.92,-477"/>
</g>
<!-- src_api_routes&#45;&gt;src_api_app -->
<g id="edge20" class="edge">
<title>src_api_routes&#45;&gt;src_api_app</title><style>.edge>path:hover{stroke-width:8}</style>
<path fill="none" stroke="black" d="M590.39,-73.89C609.97,-83.38 636.09,-96.06 657.17,-106.28"/>
<polygon fill="#43779d" stroke="black" points="655.48,-109.35 666.01,-110.57 658.54,-103.05 655.48,-109.35"/>
</g>
<!-- src_app -->
<g id="node14" class="node">
<title>src_app</title><style>.edge>path:hover{stroke-width:8}</style>
<ellipse fill="#538cb6" stroke="black" cx="803.91" cy="-423" rx="29.01" ry="18"/>
<text xml:space="preserve" text-anchor="middle" x="803.91" y="-419.5" font-family="Helvetica,sans-Serif" font-size="10.00" fill="#000000">src.app</text>
</g>
<!-- src_app&#45;&gt;main_py -->
<g id="edge21" class="edge">
<title>src_app&#45;&gt;main_py</title><style>.edge>path:hover{stroke-width:8}</style>
<path fill="none" stroke="black" d="M820.54,-438.04C837.46,-454.02 862.85,-477 868.92,-477"/>
</g>
<!-- src_app_application&#45;&gt;main_py -->
<g id="edge22" class="edge">
<title>src_app_application&#45;&gt;main_py</title><style>.edge>path:hover{stroke-width:8}</style>
<path fill="none" stroke="black" d="M720.07,-520.02C748.37,-546.98 795.89,-582.06 832.92,-558 865.95,-536.53 829.53,-477 868.92,-477"/>
</g>
<!-- src_helpers -->
<g id="node16" class="node">
<title>src_helpers</title><style>.edge>path:hover{stroke-width:8}</style>
<ellipse fill="#1694f3" stroke="black" cx="422.59" cy="-389" rx="38.49" ry="18"/>
<text xml:space="preserve" text-anchor="middle" x="422.59" y="-385.5" font-family="Helvetica,sans-Serif" font-size="10.00" fill="#ffffff">src.helpers</text>
</g>
<!-- src_helpers&#45;&gt;main_py -->
<g id="edge23" class="edge">
<title>src_helpers&#45;&gt;main_py</title><style>.edge>path:hover{stroke-width:8}</style>
<path fill="none" stroke="black" d="M561.76,-423C565.58,-422.31 689.85,-376.49 693.7,-377"/>
</g>
<!-- src_helpers&#45;&gt;src_api_app -->
<g id="edge24" class="edge">
<title>src_helpers&#45;&gt;src_api_app</title><style>.edge>path:hover{stroke-width:8}</style>
<path fill="none" stroke="black" d="M561.76,-423C586.28,-418.57 597.52,-422.22 614.5,-404 680.94,-332.74 692.22,-209.94 693.75,-153.7"/>
<polygon fill="#1694f3" stroke="black" points="697.24,-154.01 693.92,-143.95 690.24,-153.89 697.24,-154.01"/>
<path fill="none" stroke="black" d="M449.47,-402.22C476.7,-414.54 520.92,-430.01 559.76,-423"/>
</g>
<!-- src_helpers&#45;&gt;src_app_application -->
<g id="edge25" class="edge">
<title>src_helpers&#45;&gt;src_app_application</title><style>.edge>path:hover{stroke-width:8}</style>
<path fill="none" stroke="black" d="M561.76,-423C580.84,-419.56 622.44,-444.2 653.86,-465.39"/>
<polygon fill="#1694f3" stroke="black" points="651.77,-468.2 662,-470.96 655.73,-462.42 651.77,-468.2"/>
</g>
<!-- src_helpers_config -->
<g id="node17" class="node">
<title>src_helpers_config</title><style>.edge>path:hover{stroke-width:8}</style>
<ellipse fill="#3b8fce" stroke="black" cx="422.59" cy="-246" rx="35.71" ry="31.11"/>
<text xml:space="preserve" text-anchor="middle" x="422.59" y="-254.5" font-family="Helvetica,sans-Serif" font-size="10.00" fill="#ffffff">src.</text>
<text xml:space="preserve" text-anchor="middle" x="422.59" y="-242.5" font-family="Helvetica,sans-Serif" font-size="10.00" fill="#ffffff">helpers.</text>
<text xml:space="preserve" text-anchor="middle" x="422.59" y="-230.5" font-family="Helvetica,sans-Serif" font-size="10.00" fill="#ffffff">config</text>
</g>
<!-- src_helpers_config&#45;&gt;src_api_app -->
<g id="edge26" class="edge">
<title>src_helpers_config&#45;&gt;src_api_app</title><style>.edge>path:hover{stroke-width:8}</style>
<path fill="none" stroke="black" d="M453.77,-230.62C469.47,-222.85 489.09,-213.51 507.02,-206 530.01,-196.38 536.15,-194.96 559.76,-187"/>
</g>
<!-- src_helpers_logging_setup -->
<g id="node19" class="node">
<title>src_helpers_logging_setup</title><style>.edge>path:hover{stroke-width:8}</style>
<ellipse fill="#407196" stroke="black" cx="560.76" cy="-246" rx="53.74" ry="31.11"/>
<text xml:space="preserve" text-anchor="middle" x="560.76" y="-254.5" font-family="Helvetica,sans-Serif" font-size="10.00" fill="#ffffff">src.</text>
<text xml:space="preserve" text-anchor="middle" x="560.76" y="-242.5" font-family="Helvetica,sans-Serif" font-size="10.00" fill="#ffffff">helpers.</text>
<text xml:space="preserve" text-anchor="middle" x="560.76" y="-230.5" font-family="Helvetica,sans-Serif" font-size="10.00" fill="#ffffff">logging_setup</text>
</g>
<!-- src_helpers_config&#45;&gt;src_helpers_logging_setup -->
<g id="edge27" class="edge">
<title>src_helpers_config&#45;&gt;src_helpers_logging_setup</title><style>.edge>path:hover{stroke-width:8}</style>
<path fill="none" stroke="black" d="M458.66,-246C469.82,-246 482.54,-246 495.11,-246"/>
<polygon fill="#3b8fce" stroke="black" points="495.04,-249.5 505.04,-246 495.04,-242.5 495.04,-249.5"/>
</g>
<!-- src_helpers_config_config -->
<g id="node18" class="node">
<title>src_helpers_config_config</title><style>.edge>path:hover{stroke-width:8}</style>
<ellipse fill="#3a7eb0" stroke="black" cx="289.71" cy="-267" rx="35.71" ry="39.6"/>
<text xml:space="preserve" text-anchor="middle" x="289.71" y="-281.5" font-family="Helvetica,sans-Serif" font-size="10.00" fill="#ffffff">src.</text>
<text xml:space="preserve" text-anchor="middle" x="289.71" y="-269.5" font-family="Helvetica,sans-Serif" font-size="10.00" fill="#ffffff">helpers.</text>
<text xml:space="preserve" text-anchor="middle" x="289.71" y="-257.5" font-family="Helvetica,sans-Serif" font-size="10.00" fill="#ffffff">config.</text>
<text xml:space="preserve" text-anchor="middle" x="289.71" y="-245.5" font-family="Helvetica,sans-Serif" font-size="10.00" fill="#ffffff">config</text>
</g>
<!-- src_helpers_config_config&#45;&gt;src_api_app -->
<g id="edge28" class="edge">
<title>src_helpers_config_config&#45;&gt;src_api_app</title><style>.edge>path:hover{stroke-width:8}</style>
<path fill="none" stroke="black" d="M317.66,-241.52C342.42,-220.46 381.3,-193.07 421.59,-187"/>
</g>
<!-- src_helpers_config_config&#45;&gt;src_helpers_logging_setup -->
<g id="edge29" class="edge">
<title>src_helpers_config_config&#45;&gt;src_helpers_logging_setup</title><style>.edge>path:hover{stroke-width:8}</style>
<path fill="none" stroke="black" d="M324.62,-276.89C361.11,-286.07 420.71,-296.82 471.02,-286 484.58,-283.09 498.56,-277.93 511.3,-272.27"/>
<polygon fill="#3a7eb0" stroke="black" points="512.71,-275.48 520.3,-268.08 509.76,-269.13 512.71,-275.48"/>
</g>
<!-- src_helpers_logging_setup&#45;&gt;main_py -->
<g id="edge30" class="edge">
<title>src_helpers_logging_setup&#45;&gt;main_py</title><style>.edge>path:hover{stroke-width:8}</style>
<path fill="none" stroke="black" d="M695.7,-377C742.94,-383.24 774.22,-338.96 802.91,-377"/>
<path fill="none" stroke="black" d="M595.52,-269.96C602.02,-275.03 608.63,-280.51 614.5,-286 653.67,-322.62 640.54,-369.98 693.7,-377"/>
</g>
<!-- src_helpers_style_loader&#45;&gt;src_app_application -->
<g id="edge31" class="edge">
<title>src_helpers_style_loader&#45;&gt;src_app_application</title><style>.edge>path:hover{stroke-width:8}</style>
<path fill="none" stroke="black" d="M471.48,-494C497.58,-494 530.45,-494 559.76,-494"/>
</g>
<!-- src_node_setup -->
<g id="node21" class="node">
<title>src_node_setup</title><style>.edge>path:hover{stroke-width:8}</style>
<ellipse fill="#4981ac" stroke="black" cx="560.76" cy="-377" rx="49.76" ry="18"/>
<text xml:space="preserve" text-anchor="middle" x="560.76" y="-373.5" font-family="Helvetica,sans-Serif" font-size="10.00" fill="#ffffff">src.node_setup</text>
</g>
<!-- src_node_setup&#45;&gt;main_py -->
<g id="edge32" class="edge">
<title>src_node_setup&#45;&gt;main_py</title><style>.edge>path:hover{stroke-width:8}</style>
<path fill="none" stroke="black" d="M610.21,-373.97C635.24,-373.17 666.22,-373.37 693.7,-377"/>
</g>
<!-- src_pyside_setup -->
<g id="node22" class="node">
<title>src_pyside_setup</title><style>.edge>path:hover{stroke-width:8}</style>
<ellipse fill="#4c87b3" stroke="black" cx="560.76" cy="-318" rx="52.15" ry="22.63"/>
<text xml:space="preserve" text-anchor="middle" x="560.76" y="-320.5" font-family="Helvetica,sans-Serif" font-size="10.00" fill="#ffffff">src.</text>
<text xml:space="preserve" text-anchor="middle" x="560.76" y="-308.5" font-family="Helvetica,sans-Serif" font-size="10.00" fill="#ffffff">pyside_setup</text>
</g>
<!-- src_pyside_setup&#45;&gt;main_py -->
<g id="edge33" class="edge">
<title>src_pyside_setup&#45;&gt;main_py</title><style>.edge>path:hover{stroke-width:8}</style>
<path fill="none" stroke="black" d="M590.67,-336.83C616.47,-352.14 655.89,-372.01 693.7,-377"/>
</g>
<!-- src_settings -->
<g id="node23" class="node">
<title>src_settings</title><style>.edge>path:hover{stroke-width:8}</style>
<ellipse fill="#538cb6" stroke="black" cx="694.7" cy="-427" rx="40.29" ry="18"/>
<text xml:space="preserve" text-anchor="middle" x="694.7" y="-423.5" font-family="Helvetica,sans-Serif" font-size="10.00" fill="#000000">src.settings</text>
</g>
<!-- src_settings&#45;&gt;src -->
<g id="edge34" class="edge">
<title>src_settings&#45;&gt;src</title><style>.edge>path:hover{stroke-width:8}</style>
<path fill="none" stroke="black" d="M721.55,-440.88C727.57,-444.71 733.73,-449.16 738.89,-454 758.88,-472.72 756.96,-483.3 774.89,-504 776.29,-505.61 777.76,-507.23 779.28,-508.84"/>
<polygon fill="#538cb6" stroke="black" points="776.4,-510.91 785.93,-515.55 781.37,-505.98 776.4,-510.91"/>
</g>
<!-- structlog -->
<g id="node24" class="node">
<title>structlog</title><style>.edge>path:hover{stroke-width:8}</style>
<ellipse fill="#4e0cf3" stroke="black" cx="173.11" cy="-231" rx="32.17" ry="18"/>
<text xml:space="preserve" text-anchor="middle" x="173.11" y="-227.5" font-family="Helvetica,sans-Serif" font-size="10.00" fill="#ffffff">structlog</text>
</g>
<!-- structlog&#45;&gt;src_api_routes -->
<g id="edge35" class="edge">
<title>structlog&#45;&gt;src_api_routes</title><style>.edge>path:hover{stroke-width:8}</style>
<path fill="none" stroke="black" d="M175.87,-212.67C180.22,-178.87 194.73,-107.23 241.28,-75 322.15,-19 444.23,-33.52 511.32,-47.64"/>
<polygon fill="#4e0cf3" stroke="black" points="510.4,-51.02 520.92,-49.75 511.9,-44.18 510.4,-51.02"/>
</g>
<!-- structlog&#45;&gt;src_app_application -->
<g id="edge36" class="edge">
<title>structlog&#45;&gt;src_app_application</title><style>.edge>path:hover{stroke-width:8}</style>
<path fill="none" stroke="black" d="M423.59,-435C453.2,-443.52 558.22,-494 559.76,-494"/>
<path fill="none" stroke="black" d="M290.71,-393C345.49,-420.03 362.88,-418.11 421.59,-435"/>
<path fill="none" stroke="black" d="M561.76,-494C587.06,-494 615.08,-494 638.77,-494"/>
<polygon fill="#4e0cf3" stroke="black" points="638.51,-497.5 648.51,-494 638.51,-490.5 638.51,-497.5"/>
</g>
<!-- structlog&#45;&gt;src_helpers_logging_setup -->
<g id="edge37" class="edge">
<title>structlog&#45;&gt;src_helpers_logging_setup</title><style>.edge>path:hover{stroke-width:8}</style>
<path fill="none" stroke="black" d="M423.59,-343C429.1,-341.39 479.87,-304.68 517.82,-276.89"/>
<polygon fill="#4e0cf3" stroke="black" points="519.45,-280.03 525.44,-271.3 515.31,-274.39 519.45,-280.03"/>
<path fill="none" stroke="black" d="M178.65,-249.05C186.76,-277.95 206.24,-334.92 241.28,-370 257.83,-386.58 267.7,-382.63 288.71,-393"/>
<path fill="none" stroke="black" d="M290.71,-393C294.2,-394.72 417.85,-344.09 421.59,-343"/>
</g>
<!-- structlog&#45;&gt;src_node_setup -->
<g id="edge38" class="edge">
<title>structlog&#45;&gt;src_node_setup</title><style>.edge>path:hover{stroke-width:8}</style>
<path fill="none" stroke="black" d="M423.59,-343C456.73,-333.31 494.9,-344.76 522.38,-356.92"/>
<polygon fill="#4e0cf3" stroke="black" points="520.81,-360.05 531.35,-361.11 523.77,-353.71 520.81,-360.05"/>
</g>
<!-- structlog&#45;&gt;src_pyside_setup -->
<g id="edge39" class="edge">
<title>structlog&#45;&gt;src_pyside_setup</title><style>.edge>path:hover{stroke-width:8}</style>
<path fill="none" stroke="black" d="M423.59,-343C447.87,-335.9 475.21,-330.41 498.99,-326.41"/>
<polygon fill="#4e0cf3" stroke="black" points="499.54,-329.86 508.85,-324.8 498.42,-322.95 499.54,-329.86"/>
</g>
<!-- uvicorn -->
<g id="node25" class="node">
<title>uvicorn</title><style>.edge>path:hover{stroke-width:8}</style>
<ellipse fill="#c040ad" stroke="black" cx="289.71" cy="-343" rx="28.56" ry="18"/>
<text xml:space="preserve" text-anchor="middle" x="289.71" y="-339.5" font-family="Helvetica,sans-Serif" font-size="10.00" fill="#ffffff">uvicorn</text>
</g>
<!-- uvicorn&#45;&gt;src_api_app -->
<g id="edge40" class="edge">
<title>uvicorn&#45;&gt;src_api_app</title><style>.edge>path:hover{stroke-width:8}</style>
<path fill="none" stroke="black" d="M314.43,-333.82C322.92,-329.52 331.92,-323.63 338.15,-316 370.69,-276.16 338.97,-243.53 374.15,-206 389.68,-189.43 399.13,-190.39 421.59,-187"/>
</g>
</g>
</svg>
