<?xml version="1.0" encoding="UTF-8" standalone="no"?>
<!DOCTYPE svg PUBLIC "-//W3C//DTD SVG 1.1//EN"
 "http://www.w3.org/Graphics/SVG/1.1/DTD/svg11.dtd">
<!-- Generated by graphviz version 14.1.5 (20260411.2331)
 -->
<!-- Title: G Pages: 1 -->
<svg width="1587pt" height="732pt"
 viewBox="0.00 0.00 1587.00 732.00" xmlns="http://www.w3.org/2000/svg" xmlns:xlink="http://www.w3.org/1999/xlink">
<g id="graph0" class="graph" transform="scale(1 1) rotate(0) translate(4 727.9)">
<title>G</title><style>.edge>path:hover{stroke-width:8}</style>
<polygon fill="white" stroke="none" points="-4,4 -4,-727.9 1583.49,-727.9 1583.49,4 -4,4"/>
<!-- annotated_doc -->
<g id="node1" class="node">
<title>annotated_doc</title><style>.edge>path:hover{stroke-width:8}</style>
<polygon fill="#f95e06" stroke="black" points="1154.75,-501.04 1151.75,-505.04 1130.75,-505.04 1127.75,-501.04 1075,-501.04 1075,-465.04 1154.75,-465.04 1154.75,-501.04"/>
<text xml:space="preserve" text-anchor="middle" x="1114.88" y="-479.54" font-family="Helvetica,sans-Serif" font-size="10.00" fill="#000000">annotated_doc</text>
</g>
<!-- fastapi -->
<g id="node9" class="node">
<title>fastapi</title><style>.edge>path:hover{stroke-width:8}</style>
<polygon fill="blue" stroke="black" points="1281.75,-318.04 1278.75,-322.04 1257.75,-322.04 1254.75,-318.04 1227.75,-318.04 1227.75,-282.04 1281.75,-282.04 1281.75,-318.04"/>
<text xml:space="preserve" text-anchor="middle" x="1254.75" y="-296.54" font-family="Helvetica,sans-Serif" font-size="10.00" fill="white">fastapi</text>
</g>
<!-- annotated_doc&#45;&gt;fastapi -->
<g id="edge1" class="edge">
<title>annotated_doc&#45;&gt;fastapi</title><style>.edge>path:hover{stroke-width:8}</style>
<path fill="none" stroke="black" d="M1154.87,-490.53C1167.09,-490.98 1180.13,-489.35 1190.75,-483.04"/>
</g>
<!-- annotated_types -->
<g id="node2" class="node">
<title>annotated_types</title><style>.edge>path:hover{stroke-width:8}</style>
<polygon fill="#d98826" stroke="black" points="437.5,-540.04 434.5,-544.04 413.5,-544.04 410.5,-540.04 349.5,-540.04 349.5,-504.04 437.5,-504.04 437.5,-540.04"/>
<text xml:space="preserve" text-anchor="middle" x="393.5" y="-518.54" font-family="Helvetica,sans-Serif" font-size="10.00" fill="#000000">annotated_types</text>
</g>
<!-- pydantic -->
<g id="node18" class="node">
<title>pydantic</title><style>.edge>path:hover{stroke-width:8}</style>
<polygon fill="blue" stroke="black" points="1039,-646.04 1036,-650.04 1015,-650.04 1012,-646.04 985,-646.04 985,-610.04 1039,-610.04 1039,-646.04"/>
<text xml:space="preserve" text-anchor="middle" x="1012" y="-624.54" font-family="Helvetica,sans-Serif" font-size="10.00" fill="white">pydantic</text>
</g>
<!-- annotated_types&#45;&gt;pydantic -->
<g id="edge2" class="edge">
<title>annotated_types&#45;&gt;pydantic</title><style>.edge>path:hover{stroke-width:8}</style>
<path fill="none" stroke="black" d="M429.34,-540.43C432.11,-541.97 434.86,-543.52 437.5,-545.04 502.51,-582.54 508.82,-613.48 581,-634.04 677.15,-661.44 706.26,-636.63 805.88,-628.04"/>
</g>
<!-- anyio -->
<g id="node3" class="node">
<title>anyio</title><style>.edge>path:hover{stroke-width:8}</style>
<polygon fill="blue" stroke="black" points="635,-312.04 632,-316.04 611,-316.04 608,-312.04 581,-312.04 581,-276.04 635,-276.04 635,-312.04"/>
<text xml:space="preserve" text-anchor="middle" x="608" y="-290.54" font-family="Helvetica,sans-Serif" font-size="10.00" fill="white">anyio</text>
</g>
<!-- anyio&#45;&gt;fastapi -->
<g id="edge3" class="edge">
<title>anyio&#45;&gt;fastapi</title><style>.edge>path:hover{stroke-width:8}</style>
<path fill="none" stroke="black" d="M1191.75,-483.04C1243.96,-452.01 1253.33,-373.34 1254.34,-329.94"/>
<polygon fill="blue" stroke="black" points="1257.84,-329.98 1254.42,-319.96 1250.84,-329.93 1257.84,-329.98"/>
<path fill="none" stroke="black" d="M635.44,-294.9C688.82,-296.56 813.29,-300.04 917.88,-300.04 917.88,-300.04 917.88,-300.04 1013,-300.04 1027.17,-300.04 1178.57,-490.28 1190.75,-483.04"/>
</g>
<!-- httpcore -->
<g id="node11" class="node">
<title>httpcore</title><style>.edge>path:hover{stroke-width:8}</style>
<polygon fill="#267334" stroke="black" points="833.88,-234.04 830.88,-238.04 809.88,-238.04 806.88,-234.04 779.88,-234.04 779.88,-198.04 833.88,-198.04 833.88,-234.04"/>
<text xml:space="preserve" text-anchor="middle" x="806.88" y="-212.54" font-family="Helvetica,sans-Serif" font-size="10.00" fill="#ffffff">httpcore</text>
</g>
<!-- anyio&#45;&gt;httpcore -->
<g id="edge4" class="edge">
<title>anyio&#45;&gt;httpcore</title><style>.edge>path:hover{stroke-width:8}</style>
<path fill="none" stroke="black" d="M626.82,-275.65C644.14,-257.86 668.23,-233.39 671,-232.04 701.44,-217.27 740.14,-214.03 768.26,-214.04"/>
<polygon fill="blue" stroke="black" points="768.05,-217.54 778.1,-214.19 768.16,-210.54 768.05,-217.54"/>
</g>
<!-- starlette -->
<g id="node27" class="node">
<title>starlette</title><style>.edge>path:hover{stroke-width:8}</style>
<polygon fill="#ba10f9" stroke="black" points="833.88,-470.04 830.88,-474.04 809.88,-474.04 806.88,-470.04 779.88,-470.04 779.88,-434.04 833.88,-434.04 833.88,-470.04"/>
<text xml:space="preserve" text-anchor="middle" x="806.88" y="-448.54" font-family="Helvetica,sans-Serif" font-size="10.00" fill="#ffffff">starlette</text>
</g>
<!-- anyio&#45;&gt;starlette -->
<g id="edge5" class="edge">
<title>anyio&#45;&gt;starlette</title><style>.edge>path:hover{stroke-width:8}</style>
<path fill="none" stroke="black" d="M628.65,-312.31C631,-315.08 633.2,-318.03 635,-321.04 661.83,-365.92 631.01,-399.36 671,-433.04 697.75,-455.57 738.6,-458.41 768.33,-456.79"/>
<polygon fill="blue" stroke="black" points="768.31,-460.3 778.02,-456.06 767.78,-453.32 768.31,-460.3"/>
</g>
<!-- attr -->
<g id="node4" class="node">
<title>attr</title><style>.edge>path:hover{stroke-width:8}</style>
<polygon fill="blue" stroke="black" points="536.25,-174.04 533.25,-178.04 512.25,-178.04 509.25,-174.04 482.25,-174.04 482.25,-138.04 536.25,-138.04 536.25,-174.04"/>
<text xml:space="preserve" text-anchor="middle" x="509.25" y="-152.54" font-family="Helvetica,sans-Serif" font-size="10.00" fill="white">attr</text>
</g>
<!-- rich -->
<g id="node24" class="node">
<title>rich</title><style>.edge>path:hover{stroke-width:8}</style>
<polygon fill="blue" stroke="black" points="725,-104.04 722,-108.04 701,-108.04 698,-104.04 671,-104.04 671,-68.04 725,-68.04 725,-104.04"/>
<text xml:space="preserve" text-anchor="middle" x="698" y="-82.54" font-family="Helvetica,sans-Serif" font-size="10.00" fill="white">rich</text>
</g>
<!-- attr&#45;&gt;rich -->
<g id="edge6" class="edge">
<title>attr&#45;&gt;rich</title><style>.edge>path:hover{stroke-width:8}</style>
<path fill="none" stroke="black" d="M536.41,-160.37C556.28,-162.64 584.02,-163.58 607,-156.04"/>
</g>
<!-- certifi -->
<g id="node5" class="node">
<title>certifi</title><style>.edge>path:hover{stroke-width:8}</style>
<polygon fill="#b4c040" stroke="black" points="635,-258.04 632,-262.04 611,-262.04 608,-258.04 581,-258.04 581,-222.04 635,-222.04 635,-258.04"/>
<text xml:space="preserve" text-anchor="middle" x="608" y="-236.54" font-family="Helvetica,sans-Serif" font-size="10.00" fill="#000000">certifi</text>
</g>
<!-- certifi&#45;&gt;httpcore -->
<g id="edge7" class="edge">
<title>certifi&#45;&gt;httpcore</title><style>.edge>path:hover{stroke-width:8}</style>
<path fill="none" stroke="black" d="M699,-170.04C713.01,-166.81 744.5,-181.41 769.69,-195"/>
<polygon fill="#b4c040" stroke="black" points="767.91,-198.01 778.35,-199.77 771.29,-191.88 767.91,-198.01"/>
</g>
<!-- httpx -->
<g id="node12" class="node">
<title>httpx</title><style>.edge>path:hover{stroke-width:8}</style>
<polygon fill="blue" stroke="black" points="1141.88,-272.04 1138.88,-276.04 1117.88,-276.04 1114.88,-272.04 1087.88,-272.04 1087.88,-236.04 1141.88,-236.04 1141.88,-272.04"/>
<text xml:space="preserve" text-anchor="middle" x="1114.88" y="-250.54" font-family="Helvetica,sans-Serif" font-size="10.00" fill="white">httpx</text>
</g>
<!-- certifi&#45;&gt;httpx -->
<g id="edge8" class="edge">
<title>certifi&#45;&gt;httpx</title><style>.edge>path:hover{stroke-width:8}</style>
<path fill="none" stroke="black" d="M699,-170.04C766.1,-154.59 788.43,-164.47 852.75,-189.04 885.38,-201.51 882.99,-231.16 917.88,-233.04"/>
<path fill="none" stroke="black" d="M623.09,-221.71C638.73,-203.32 665.9,-176.78 697,-170.04"/>
<path fill="none" stroke="black" d="M919.88,-233.04C960.37,-234.87 974.35,-211.72 1011,-229.04"/>
</g>
<!-- click -->
<g id="node6" class="node">
<title>click</title><style>.edge>path:hover{stroke-width:8}</style>
<polygon fill="blue" stroke="black" points="635,-366.04 632,-370.04 611,-370.04 608,-366.04 581,-366.04 581,-330.04 635,-330.04 635,-366.04"/>
<text xml:space="preserve" text-anchor="middle" x="608" y="-344.54" font-family="Helvetica,sans-Serif" font-size="10.00" fill="white">click</text>
</g>
<!-- click&#45;&gt;httpx -->
<g id="edge9" class="edge">
<title>click&#45;&gt;httpx</title><style>.edge>path:hover{stroke-width:8}</style>
<path fill="none" stroke="black" d="M635.3,-335.19C698.84,-304.63 859.71,-230.42 917.88,-233.04"/>
</g>
<!-- uvicorn -->
<g id="node32" class="node">
<title>uvicorn</title><style>.edge>path:hover{stroke-width:8}</style>
<polygon fill="blue" stroke="black" points="945.88,-470.04 942.88,-474.04 921.88,-474.04 918.88,-470.04 891.88,-470.04 891.88,-434.04 945.88,-434.04 945.88,-470.04"/>
<text xml:space="preserve" text-anchor="middle" x="918.88" y="-448.54" font-family="Helvetica,sans-Serif" font-size="10.00" fill="white">uvicorn</text>
</g>
<!-- click&#45;&gt;uvicorn -->
<g id="edge10" class="edge">
<title>click&#45;&gt;uvicorn</title><style>.edge>path:hover{stroke-width:8}</style>
<path fill="none" stroke="black" d="M807.88,-406.04C833.66,-409.6 860.66,-420.76 881.45,-431.2"/>
<polygon fill="blue" stroke="black" points="879.6,-434.18 890.08,-435.69 882.83,-427.97 879.6,-434.18"/>
<path fill="none" stroke="black" d="M635.39,-354.61C658.99,-360.59 694.45,-369.87 725,-379.04 761.29,-389.94 768.34,-400.87 805.88,-406.04"/>
</g>
<!-- colorama -->
<g id="node7" class="node">
<title>colorama</title><style>.edge>path:hover{stroke-width:8}</style>
<polygon fill="blue" stroke="black" points="421.38,-266.04 418.38,-270.04 397.38,-270.04 394.38,-266.04 365.62,-266.04 365.62,-230.04 421.38,-230.04 421.38,-266.04"/>
<text xml:space="preserve" text-anchor="middle" x="393.5" y="-244.54" font-family="Helvetica,sans-Serif" font-size="10.00" fill="white">colorama</text>
</g>
<!-- colorama&#45;&gt;click -->
<g id="edge11" class="edge">
<title>colorama&#45;&gt;click</title><style>.edge>path:hover{stroke-width:8}</style>
<path fill="none" stroke="black" d="M406.92,-266.17C425.46,-291.12 463.08,-334.09 508.25,-344.04"/>
<path fill="none" stroke="black" d="M510.25,-344.04C529.51,-348.29 551.43,-349.48 569.53,-349.53"/>
<polygon fill="blue" stroke="black" points="569.33,-353.03 579.3,-349.43 569.26,-346.03 569.33,-353.03"/>
</g>
<!-- structlog -->
<g id="node28" class="node">
<title>structlog</title><style>.edge>path:hover{stroke-width:8}</style>
<polygon fill="blue" stroke="black" points="945.88,-205.04 942.88,-209.04 921.88,-209.04 918.88,-205.04 891.88,-205.04 891.88,-169.04 945.88,-169.04 945.88,-205.04"/>
<text xml:space="preserve" text-anchor="middle" x="918.88" y="-183.54" font-family="Helvetica,sans-Serif" font-size="10.00" fill="white">structlog</text>
</g>
<!-- colorama&#45;&gt;structlog -->
<g id="edge12" class="edge">
<title>colorama&#45;&gt;structlog</title><style>.edge>path:hover{stroke-width:8}</style>
<path fill="none" stroke="black" d="M421.62,-248.16C444.67,-248.23 478.63,-248.27 508.25,-248.04"/>
</g>
<!-- dotenv -->
<g id="node8" class="node">
<title>dotenv</title><style>.edge>path:hover{stroke-width:8}</style>
<polygon fill="#6ab83d" stroke="black" points="725,-592.04 722,-596.04 701,-596.04 698,-592.04 671,-592.04 671,-556.04 725,-556.04 725,-592.04"/>
<text xml:space="preserve" text-anchor="middle" x="698" y="-570.54" font-family="Helvetica,sans-Serif" font-size="10.00" fill="#000000">dotenv</text>
</g>
<!-- dotenv&#45;&gt;pydantic -->
<g id="edge13" class="edge">
<title>dotenv&#45;&gt;pydantic</title><style>.edge>path:hover{stroke-width:8}</style>
<path fill="none" stroke="black" d="M807.88,-536.04C868.52,-525.76 857.67,-607.44 917.88,-620.04"/>
<path fill="none" stroke="black" d="M919.88,-620.04C937.26,-623.68 956.85,-625.67 973.4,-626.75"/>
<polygon fill="#6ab83d" stroke="black" points="973.14,-630.24 983.32,-627.31 973.54,-623.25 973.14,-630.24"/>
</g>
<!-- dotenv&#45;&gt;uvicorn -->
<g id="edge14" class="edge">
<title>dotenv&#45;&gt;uvicorn</title><style>.edge>path:hover{stroke-width:8}</style>
<path fill="none" stroke="black" d="M807.88,-536.04C844.27,-529.87 876.59,-500.87 896.63,-478.65"/>
<polygon fill="#6ab83d" stroke="black" points="899.03,-481.22 902.94,-471.37 893.74,-476.63 899.03,-481.22"/>
<path fill="none" stroke="black" d="M725.1,-561.87C746.33,-552.69 777.33,-540.88 805.88,-536.04"/>
</g>
<!-- src -->
<g id="node26" class="node">
<title>src</title><style>.edge>path:hover{stroke-width:8}</style>
<polygon fill="#8506ef" stroke="black" points="1445.75,-272.04 1442.75,-276.04 1421.75,-276.04 1418.75,-272.04 1391.75,-272.04 1391.75,-236.04 1445.75,-236.04 1445.75,-272.04"/>
<text xml:space="preserve" text-anchor="middle" x="1418.75" y="-250.54" font-family="Helvetica,sans-Serif" font-size="10.00" fill="#ffffff">src</text>
</g>
<!-- fastapi&#45;&gt;src -->
<g id="edge15" class="edge">
<title>fastapi&#45;&gt;src</title><style>.edge>path:hover{stroke-width:8}</style>
<path fill="none" stroke="black" d="M1274.04,-281.75C1288.53,-268.18 1307.92,-252.32 1317.75,-254.04"/>
</g>
<!-- h11 -->
<g id="node10" class="node">
<title>h11</title><style>.edge>path:hover{stroke-width:8}</style>
<polygon fill="#1eae1e" stroke="black" points="536.25,-408.04 533.25,-412.04 512.25,-412.04 509.25,-408.04 482.25,-408.04 482.25,-372.04 536.25,-372.04 536.25,-408.04"/>
<text xml:space="preserve" text-anchor="middle" x="509.25" y="-386.54" font-family="Helvetica,sans-Serif" font-size="10.00" fill="#ffffff">h11</text>
</g>
<!-- h11&#45;&gt;httpcore -->
<g id="edge16" class="edge">
<title>h11&#45;&gt;httpcore</title><style>.edge>path:hover{stroke-width:8}</style>
<path fill="none" stroke="black" d="M531.21,-408.35C549.75,-422.72 578.24,-440.54 607,-442.04"/>
<path fill="none" stroke="black" d="M609,-442.04C615.53,-442.38 733.38,-302.63 783.55,-242.75"/>
<polygon fill="#1eae1e" stroke="black" points="786.01,-245.26 789.75,-235.35 780.64,-240.77 786.01,-245.26"/>
</g>
<!-- h11&#45;&gt;uvicorn -->
<g id="edge17" class="edge">
<title>h11&#45;&gt;uvicorn</title><style>.edge>path:hover{stroke-width:8}</style>
<path fill="none" stroke="black" d="M609,-442.04C660.44,-447.34 674.32,-443.31 725,-433.04 762.14,-425.52 768.25,-401.52 805.88,-406.04"/>
</g>
<!-- httpcore&#45;&gt;httpx -->
<g id="edge18" class="edge">
<title>httpcore&#45;&gt;httpx</title><style>.edge>path:hover{stroke-width:8}</style>
<path fill="none" stroke="black" d="M833.95,-221.57C856.14,-225.91 888.93,-231.48 917.88,-233.04"/>
</g>
<!-- httpx&#45;&gt;src -->
<g id="edge19" class="edge">
<title>httpx&#45;&gt;src</title><style>.edge>path:hover{stroke-width:8}</style>
<path fill="none" stroke="black" d="M1142.25,-255.1C1156.62,-255.41 1174.69,-255.37 1190.75,-254.04"/>
</g>
<!-- idna -->
<g id="node13" class="node">
<title>idna</title><style>.edge>path:hover{stroke-width:8}</style>
<polygon fill="blue" stroke="black" points="293.12,-182.04 290.12,-186.04 269.12,-186.04 266.12,-182.04 239.12,-182.04 239.12,-146.04 293.12,-146.04 293.12,-182.04"/>
<text xml:space="preserve" text-anchor="middle" x="266.12" y="-160.54" font-family="Helvetica,sans-Serif" font-size="10.00" fill="white">idna</text>
</g>
<!-- idna&#45;&gt;anyio -->
<g id="edge20" class="edge">
<title>idna&#45;&gt;anyio</title><style>.edge>path:hover{stroke-width:8}</style>
<path fill="none" stroke="black" d="M510.25,-298.04C529.58,-301.19 551.35,-300.64 569.34,-299.12"/>
<polygon fill="blue" stroke="black" points="569.44,-302.62 579.04,-298.15 568.74,-295.66 569.44,-302.62"/>
<path fill="none" stroke="black" d="M293.55,-168.42C328.76,-175.2 391.91,-190.75 437.5,-221.04 476.21,-246.77 462.38,-290.58 508.25,-298.04"/>
</g>
<!-- idna&#45;&gt;httpx -->
<g id="edge21" class="edge">
<title>idna&#45;&gt;httpx</title><style>.edge>path:hover{stroke-width:8}</style>
<path fill="none" stroke="black" d="M1013,-229.04C1032.95,-238.47 1056.87,-244.6 1076.4,-248.42"/>
<polygon fill="blue" stroke="black" points="1075.67,-251.85 1086.14,-250.2 1076.93,-244.96 1075.67,-251.85"/>
<path fill="none" stroke="black" d="M293.38,-152.67C300.61,-148.57 307.98,-143.36 313.5,-137.04 341.03,-105.53 317.6,-77.13 349.5,-50.04 446.56,32.39 508.89,-8.43 635,-26.04 662.98,-29.95 669.03,-36.08 697,-40.04"/>
<path fill="none" stroke="black" d="M699,-40.04C757.6,-45.18 905.54,-87.4 949,-127.04 988.2,-162.79 963.04,-206.38 1011,-229.04"/>
</g>
<!-- linkify_it -->
<g id="node14" class="node">
<title>linkify_it</title><style>.edge>path:hover{stroke-width:8}</style>
<polygon fill="#4cb397" stroke="black" points="293.12,-128.04 290.12,-132.04 269.12,-132.04 266.12,-128.04 239.12,-128.04 239.12,-92.04 293.12,-92.04 293.12,-128.04"/>
<text xml:space="preserve" text-anchor="middle" x="266.12" y="-106.54" font-family="Helvetica,sans-Serif" font-size="10.00" fill="#000000">linkify_it</text>
</g>
<!-- markdown_it -->
<g id="node16" class="node">
<title>markdown_it</title><style>.edge>path:hover{stroke-width:8}</style>
<polygon fill="blue" stroke="black" points="545,-120.04 542,-124.04 521,-124.04 518,-120.04 473.5,-120.04 473.5,-84.04 545,-84.04 545,-120.04"/>
<text xml:space="preserve" text-anchor="middle" x="509.25" y="-98.54" font-family="Helvetica,sans-Serif" font-size="10.00" fill="white">markdown_it</text>
</g>
<!-- linkify_it&#45;&gt;markdown_it -->
<g id="edge22" class="edge">
<title>linkify_it&#45;&gt;markdown_it</title><style>.edge>path:hover{stroke-width:8}</style>
<path fill="none" stroke="black" d="M293.53,-93.05C318.25,-78.94 356.65,-61.56 392.5,-64.04"/>
</g>
<!-- main_py -->
<g id="node15" class="node">
<title>main_py</title><style>.edge>path:hover{stroke-width:8}</style>
<ellipse fill="#3c716c" stroke="black" cx="1549.12" cy="-254.04" rx="30.37" ry="18"/>
<text xml:space="preserve" text-anchor="middle" x="1549.12" y="-250.54" font-family="Helvetica,sans-Serif" font-size="10.00" fill="#ffffff">main.py</text>
</g>
<!-- markdown_it&#45;&gt;rich -->
<g id="edge23" class="edge">
<title>markdown_it&#45;&gt;rich</title><style>.edge>path:hover{stroke-width:8}</style>
<path fill="none" stroke="black" d="M609,-156.04C634.12,-147.8 657.28,-128.7 673.53,-112.53"/>
<polygon fill="blue" stroke="black" points="675.89,-115.12 680.32,-105.5 670.86,-110.26 675.89,-115.12"/>
<path fill="none" stroke="black" d="M533.82,-120.5C557.38,-137.99 592.2,-160.9 607,-156.04"/>
</g>
<!-- mdurl -->
<g id="node17" class="node">
<title>mdurl</title><style>.edge>path:hover{stroke-width:8}</style>
<polygon fill="blue" stroke="black" points="182.75,-82.04 179.75,-86.04 158.75,-86.04 155.75,-82.04 128.75,-82.04 128.75,-46.04 182.75,-46.04 182.75,-82.04"/>
<text xml:space="preserve" text-anchor="middle" x="155.75" y="-60.54" font-family="Helvetica,sans-Serif" font-size="10.00" fill="white">mdurl</text>
</g>
<!-- mdurl&#45;&gt;markdown_it -->
<g id="edge24" class="edge">
<title>mdurl&#45;&gt;markdown_it</title><style>.edge>path:hover{stroke-width:8}</style>
<path fill="none" stroke="black" d="M182.96,-62.86C226.52,-61.16 316.56,-58.77 392.5,-64.04"/>
<path fill="none" stroke="black" d="M394.5,-64.04C417.64,-65.77 442.2,-73.2 462.55,-81.04"/>
<polygon fill="blue" stroke="black" points="461.09,-84.22 471.68,-84.71 463.7,-77.73 461.09,-84.22"/>
</g>
<!-- pydantic&#45;&gt;fastapi -->
<g id="edge25" class="edge">
<title>pydantic&#45;&gt;fastapi</title><style>.edge>path:hover{stroke-width:8}</style>
<path fill="none" stroke="black" d="M1039.43,-635.11C1061.03,-639.31 1091.53,-641.53 1113.88,-628.04"/>
</g>
<!-- pydantic_core -->
<g id="node19" class="node">
<title>pydantic_core</title><style>.edge>path:hover{stroke-width:8}</style>
<polygon fill="blue" stroke="black" points="845.25,-600.04 842.25,-604.04 821.25,-604.04 818.25,-600.04 768.5,-600.04 768.5,-564.04 845.25,-564.04 845.25,-600.04"/>
<text xml:space="preserve" text-anchor="middle" x="806.88" y="-578.54" font-family="Helvetica,sans-Serif" font-size="10.00" fill="white">pydantic_core</text>
</g>
<!-- pydantic_core&#45;&gt;fastapi -->
<g id="edge26" class="edge">
<title>pydantic_core&#45;&gt;fastapi</title><style>.edge>path:hover{stroke-width:8}</style>
<path fill="none" stroke="black" d="M845.6,-575.92C867.34,-573.88 894.84,-573.88 917.88,-582.04"/>
</g>
<!-- pydantic_core&#45;&gt;pydantic -->
<g id="edge27" class="edge">
<title>pydantic_core&#45;&gt;pydantic</title><style>.edge>path:hover{stroke-width:8}</style>
<path fill="none" stroke="black" d="M845.64,-597.74C866.56,-605.76 893.25,-614.89 917.88,-620.04"/>
</g>
<!-- pygments -->
<g id="node20" class="node">
<title>pygments</title><style>.edge>path:hover{stroke-width:8}</style>
<polygon fill="blue" stroke="black" points="538.62,-66.04 535.62,-70.04 514.62,-70.04 511.62,-66.04 479.88,-66.04 479.88,-30.04 538.62,-30.04 538.62,-66.04"/>
<text xml:space="preserve" text-anchor="middle" x="509.25" y="-44.54" font-family="Helvetica,sans-Serif" font-size="10.00" fill="white">pygments</text>
</g>
<!-- pygments&#45;&gt;httpx -->
<g id="edge28" class="edge">
<title>pygments&#45;&gt;httpx</title><style>.edge>path:hover{stroke-width:8}</style>
<path fill="none" stroke="black" d="M609,-40.04C647.97,-43.35 658.28,-34.56 697,-40.04"/>
<path fill="none" stroke="black" d="M539.04,-43.14C558.28,-40.48 584.16,-38.1 607,-40.04"/>
</g>
<!-- pygments&#45;&gt;rich -->
<g id="edge29" class="edge">
<title>pygments&#45;&gt;rich</title><style>.edge>path:hover{stroke-width:8}</style>
<path fill="none" stroke="black" d="M609,-40.04C629.06,-41.75 649.13,-51.47 665.02,-61.53"/>
<polygon fill="blue" stroke="black" points="662.83,-64.28 673.09,-66.94 666.73,-58.46 662.83,-64.28"/>
</g>
<!-- PyQt6 -->
<g id="node21" class="node">
<title>PyQt6</title><style>.edge>path:hover{stroke-width:8}</style>
<polygon fill="#b65353" stroke="black" points="1141.88,-180.04 1138.88,-184.04 1117.88,-184.04 1114.88,-180.04 1087.88,-180.04 1087.88,-144.04 1141.88,-144.04 1141.88,-180.04"/>
<text xml:space="preserve" text-anchor="middle" x="1114.88" y="-158.54" font-family="Helvetica,sans-Serif" font-size="10.00" fill="#ffffff">PyQt6</text>
</g>
<!-- qasync -->
<g id="node23" class="node">
<title>qasync</title><style>.edge>path:hover{stroke-width:8}</style>
<polygon fill="blue" stroke="black" points="1281.75,-226.04 1278.75,-230.04 1257.75,-230.04 1254.75,-226.04 1227.75,-226.04 1227.75,-190.04 1281.75,-190.04 1281.75,-226.04"/>
<text xml:space="preserve" text-anchor="middle" x="1254.75" y="-204.54" font-family="Helvetica,sans-Serif" font-size="10.00" fill="white">qasync</text>
</g>
<!-- PyQt6&#45;&gt;qasync -->
<g id="edge30" class="edge">
<title>PyQt6&#45;&gt;qasync</title><style>.edge>path:hover{stroke-width:8}</style>
<path fill="none" stroke="black" d="M1142.13,-170.8C1163.31,-177.87 1193.35,-187.89 1216.93,-195.76"/>
<polygon fill="#b65353" stroke="black" points="1215.56,-198.99 1226.15,-198.84 1217.78,-192.35 1215.56,-198.99"/>
</g>
<!-- PySide6 -->
<g id="node22" class="node">
<title>PySide6</title><style>.edge>path:hover{stroke-width:8}</style>
<polygon fill="#bf3e21" stroke="black" points="1141.88,-111.04 1138.88,-115.04 1117.88,-115.04 1114.88,-111.04 1087.88,-111.04 1087.88,-75.04 1141.88,-75.04 1141.88,-111.04"/>
<text xml:space="preserve" text-anchor="middle" x="1114.88" y="-89.54" font-family="Helvetica,sans-Serif" font-size="10.00" fill="#ffffff">PySide6</text>
</g>
<!-- PySide6&#45;&gt;qasync -->
<g id="edge31" class="edge">
<title>PySide6&#45;&gt;qasync</title><style>.edge>path:hover{stroke-width:8}</style>
<path fill="none" stroke="black" d="M1191.75,-162.04C1202,-168.2 1212.64,-175.66 1222.15,-182.76"/>
<polygon fill="#bf3e21" stroke="black" points="1219.95,-185.48 1230.03,-188.76 1224.2,-179.92 1219.95,-185.48"/>
</g>
<!-- PySide6&#45;&gt;src -->
<g id="edge32" class="edge">
<title>PySide6&#45;&gt;src</title><style>.edge>path:hover{stroke-width:8}</style>
<path fill="none" stroke="black" d="M1318.75,-254.04C1338.84,-257.57 1361.58,-257.83 1380.2,-257.09"/>
<polygon fill="#bf3e21" stroke="black" points="1380.16,-260.59 1389.97,-256.58 1379.8,-253.6 1380.16,-260.59"/>
<path fill="none" stroke="black" d="M1131.78,-111.41C1145.93,-126.76 1167.87,-148.29 1190.75,-162.04"/>
<path fill="none" stroke="black" d="M1191.75,-162.04C1226.79,-183.1 1249.46,-155.97 1281.75,-181.04 1310.32,-203.23 1282.43,-246.22 1317.75,-254.04"/>
</g>
<!-- qasync&#45;&gt;src -->
<g id="edge33" class="edge">
<title>qasync&#45;&gt;src</title><style>.edge>path:hover{stroke-width:8}</style>
<path fill="none" stroke="black" d="M1271.51,-226.32C1282.94,-237.73 1299.53,-250.85 1317.75,-254.04"/>
</g>
<!-- rich&#45;&gt;httpx -->
<g id="edge34" class="edge">
<title>rich&#45;&gt;httpx</title><style>.edge>path:hover{stroke-width:8}</style>
<path fill="none" stroke="black" d="M919.88,-141.04C930.33,-152.42 937.26,-149.99 949,-160.04 980.31,-186.87 973.72,-211.43 1011,-229.04"/>
<path fill="none" stroke="black" d="M807.88,-94.04C858.41,-110.56 881.9,-101.9 917.88,-141.04"/>
<path fill="none" stroke="black" d="M725.15,-84.56C747.21,-84.11 779.35,-85.37 805.88,-94.04"/>
</g>
<!-- rich&#45;&gt;pydantic -->
<g id="edge35" class="edge">
<title>rich&#45;&gt;pydantic</title><style>.edge>path:hover{stroke-width:8}</style>
<path fill="none" stroke="black" d="M919.88,-141.04C930.33,-152.42 940.76,-146.97 949,-160.04 995.37,-233.63 1007.47,-506.89 1010.25,-598.15"/>
<polygon fill="blue" stroke="black" points="1006.75,-598.14 1010.53,-608.03 1013.74,-597.93 1006.75,-598.14"/>
</g>
<!-- rich&#45;&gt;structlog -->
<g id="edge36" class="edge">
<title>rich&#45;&gt;structlog</title><style>.edge>path:hover{stroke-width:8}</style>
<path fill="none" stroke="black" d="M807.88,-94.04C829.37,-101.07 834.78,-104.31 852.75,-118.04 857.39,-121.59 876.87,-142.38 893.33,-160.22"/>
<polygon fill="blue" stroke="black" points="890.71,-162.55 900.06,-167.54 895.87,-157.81 890.71,-162.55"/>
</g>
<!-- shiboken6 -->
<g id="node25" class="node">
<title>shiboken6</title><style>.edge>path:hover{stroke-width:8}</style>
<polygon fill="#6a3db8" stroke="black" points="949,-75.04 946,-79.04 925,-79.04 922,-75.04 888.75,-75.04 888.75,-39.04 949,-39.04 949,-75.04"/>
<text xml:space="preserve" text-anchor="middle" x="918.88" y="-53.54" font-family="Helvetica,sans-Serif" font-size="10.00" fill="#ffffff">shiboken6</text>
</g>
<!-- shiboken6&#45;&gt;PySide6 -->
<g id="edge37" class="edge">
<title>shiboken6&#45;&gt;PySide6</title><style>.edge>path:hover{stroke-width:8}</style>
<path fill="none" stroke="black" d="M949.34,-62.51C983.44,-68.84 1039.65,-79.27 1076.72,-86.15"/>
<polygon fill="#6a3db8" stroke="black" points="1075.61,-89.5 1086.08,-87.88 1076.88,-82.62 1075.61,-89.5"/>
</g>
<!-- src&#45;&gt;main_py -->
<g id="edge38" class="edge">
<title>src&#45;&gt;main_py</title><style>.edge>path:hover{stroke-width:8}</style>
<path fill="none" stroke="black" d="M1446.04,-254.04C1463.57,-254.04 1486.99,-254.04 1506.97,-254.04"/>
<polygon fill="#8506ef" stroke="black" points="1506.76,-257.54 1516.76,-254.04 1506.76,-250.54 1506.76,-257.54"/>
</g>
<!-- starlette&#45;&gt;fastapi -->
<g id="edge39" class="edge">
<title>starlette&#45;&gt;fastapi</title><style>.edge>path:hover{stroke-width:8}</style>
<path fill="none" stroke="black" d="M1115.88,-628.04C1177.97,-590.57 1128.4,-520.1 1190.75,-483.04"/>
<path fill="none" stroke="black" d="M919.88,-582.04C971.65,-595.98 987.08,-587.67 1039,-601.04 1073.26,-609.87 1083.59,-646.32 1113.88,-628.04"/>
<path fill="none" stroke="black" d="M819.87,-470.32C842.37,-503.82 891.05,-572.54 917.88,-582.04"/>
</g>
<!-- structlog&#45;&gt;src -->
<g id="edge40" class="edge">
<title>structlog&#45;&gt;src</title><style>.edge>path:hover{stroke-width:8}</style>
<path fill="none" stroke="black" d="M946.02,-187.52C990.62,-189.19 1083.5,-196.41 1154.75,-227.04 1173.12,-234.94 1170.82,-255.68 1190.75,-254.04"/>
<path fill="none" stroke="black" d="M1191.75,-254.04C1247.48,-248.59 1262.81,-243.22 1317.75,-254.04"/>
</g>
<!-- typing_extensions -->
<g id="node29" class="node">
<title>typing_extensions</title><style>.edge>path:hover{stroke-width:8}</style>
<polygon fill="#f910e4" stroke="black" points="313.5,-362.04 310.5,-366.04 289.5,-366.04 286.5,-362.04 218.75,-362.04 218.75,-326.04 313.5,-326.04 313.5,-362.04"/>
<text xml:space="preserve" text-anchor="middle" x="266.12" y="-340.54" font-family="Helvetica,sans-Serif" font-size="10.00" fill="#ffffff">typing_extensions</text>
</g>
<!-- typing_extensions&#45;&gt;annotated_types -->
<g id="edge41" class="edge">
<title>typing_extensions&#45;&gt;annotated_types</title><style>.edge>path:hover{stroke-width:8}</style>
<path fill="none" stroke="black" d="M280.07,-362.42C302.18,-393.81 347.34,-457.92 373.19,-494.62"/>
<polygon fill="#f910e4" stroke="black" points="370.13,-496.37 378.75,-502.53 375.86,-492.34 370.13,-496.37"/>
</g>
<!-- typing_extensions&#45;&gt;anyio -->
<g id="edge42" class="edge">
<title>typing_extensions&#45;&gt;anyio</title><style>.edge>path:hover{stroke-width:8}</style>
<path fill="none" stroke="black" d="M394.5,-344.04C448.77,-349.38 454.43,-289.28 508.25,-298.04"/>
<path fill="none" stroke="black" d="M313.97,-341.87C337.58,-341.33 366.61,-341.5 392.5,-344.04"/>
</g>
<!-- typing_extensions&#45;&gt;click -->
<g id="edge43" class="edge">
<title>typing_extensions&#45;&gt;click</title><style>.edge>path:hover{stroke-width:8}</style>
<path fill="none" stroke="black" d="M394.5,-344.04C444.81,-348.99 458.88,-333.17 508.25,-344.04"/>
</g>
<!-- typing_extensions&#45;&gt;fastapi -->
<g id="edge44" class="edge">
<title>typing_extensions&#45;&gt;fastapi</title><style>.edge>path:hover{stroke-width:8}</style>
<path fill="none" stroke="black" d="M699,-720.04C838.22,-703.77 874.41,-705.5 1011,-674.04"/>
</g>
<!-- typing_extensions&#45;&gt;h11 -->
<g id="edge45" class="edge">
<title>typing_extensions&#45;&gt;h11</title><style>.edge>path:hover{stroke-width:8}</style>
<path fill="none" stroke="black" d="M394.5,-344.04C421.65,-346.71 450.09,-358.22 471.75,-369.06"/>
<polygon fill="#f910e4" stroke="black" points="469.97,-372.08 480.46,-373.58 473.2,-365.87 469.97,-372.08"/>
</g>
<!-- typing_extensions&#45;&gt;markdown_it -->
<g id="edge46" class="edge">
<title>typing_extensions&#45;&gt;markdown_it</title><style>.edge>path:hover{stroke-width:8}</style>
<path fill="none" stroke="black" d="M269.84,-325.59C277.98,-278.28 307.15,-154.4 392.5,-126.04"/>
<path fill="none" stroke="black" d="M394.5,-126.04C416.24,-118.82 441.05,-113.29 461.95,-109.36"/>
<polygon fill="#f910e4" stroke="black" points="462.4,-112.84 471.62,-107.61 461.16,-105.95 462.4,-112.84"/>
</g>
<!-- typing_extensions&#45;&gt;pydantic -->
<g id="edge47" class="edge">
<title>typing_extensions&#45;&gt;pydantic</title><style>.edge>path:hover{stroke-width:8}</style>
<path fill="none" stroke="black" d="M807.88,-628.04C856.83,-625.53 869.9,-610 917.88,-620.04"/>
<path fill="none" stroke="black" d="M699,-620.04C746.52,-616.78 758.3,-630.49 805.88,-628.04"/>
</g>
<!-- typing_extensions&#45;&gt;pydantic_core -->
<g id="edge48" class="edge">
<title>typing_extensions&#45;&gt;pydantic_core</title><style>.edge>path:hover{stroke-width:8}</style>
<path fill="none" stroke="black" d="M699,-620.04C719.53,-618.64 741.11,-612.05 759.45,-604.74"/>
<polygon fill="#f910e4" stroke="black" points="760.58,-608.06 768.46,-600.97 757.88,-601.6 760.58,-608.06"/>
<path fill="none" stroke="black" d="M609,-620.04C647.15,-628.67 657.98,-622.72 697,-620.04"/>
</g>
<!-- typing_extensions&#45;&gt;rich -->
<g id="edge49" class="edge">
<title>typing_extensions&#45;&gt;rich</title><style>.edge>path:hover{stroke-width:8}</style>
<path fill="none" stroke="black" d="M274.03,-325.64C285.34,-298.17 310.54,-246.92 349.5,-221.04 423.23,-172.07 460.47,-209.32 545,-183.04 573.7,-174.12 578.44,-165.41 607,-156.04"/>
</g>
<!-- typing_extensions&#45;&gt;starlette -->
<g id="edge50" class="edge">
<title>typing_extensions&#45;&gt;starlette</title><style>.edge>path:hover{stroke-width:8}</style>
<path fill="none" stroke="black" d="M609,-620.04C649.63,-632.74 639.82,-576.02 671,-547.04 681.48,-537.3 685.39,-536.41 697,-528.04"/>
<path fill="none" stroke="black" d="M699,-528.04C722.86,-510.84 749.86,-491.64 770.76,-476.84"/>
<polygon fill="#f910e4" stroke="black" points="772.52,-479.89 778.66,-471.25 768.47,-474.17 772.52,-479.89"/>
<path fill="none" stroke="black" d="M394.5,-344.04C471.53,-351.62 533.12,-596.96 607,-620.04"/>
</g>
<!-- typing_extensions&#45;&gt;structlog -->
<g id="edge51" class="edge">
<title>typing_extensions&#45;&gt;structlog</title><style>.edge>path:hover{stroke-width:8}</style>
<path fill="none" stroke="black" d="M394.5,-126.04C464.85,-102.67 434.12,-248.61 508.25,-248.04"/>
<path fill="none" stroke="black" d="M510.25,-248.04C530.83,-247.88 651.11,-161.33 671,-156.04 696.02,-149.39 801.5,-147.86 852.75,-159.04 862.15,-161.09 871.89,-164.51 880.88,-168.25"/>
<polygon fill="#f910e4" stroke="black" points="879.45,-171.45 890.01,-172.31 882.29,-165.05 879.45,-171.45"/>
</g>
<!-- typing_inspection -->
<g id="node30" class="node">
<title>typing_inspection</title><style>.edge>path:hover{stroke-width:8}</style>
<polygon fill="#f910ba" stroke="black" points="852.75,-692.04 849.75,-696.04 828.75,-696.04 825.75,-692.04 761,-692.04 761,-656.04 852.75,-656.04 852.75,-692.04"/>
<text xml:space="preserve" text-anchor="middle" x="806.88" y="-670.54" font-family="Helvetica,sans-Serif" font-size="10.00" fill="#ffffff">typing_inspection</text>
</g>
<!-- typing_extensions&#45;&gt;typing_inspection -->
<g id="edge52" class="edge">
<title>typing_extensions&#45;&gt;typing_inspection</title><style>.edge>path:hover{stroke-width:8}</style>
<path fill="none" stroke="black" d="M271.81,-362.51C281.87,-399.95 308.04,-486.56 349.5,-549.04 444.66,-692.48 525.8,-737.93 697,-720.04"/>
<path fill="none" stroke="black" d="M699,-720.04C722.3,-717.32 746.45,-707.6 765.89,-697.79"/>
<polygon fill="#f910e4" stroke="black" points="767.32,-701 774.54,-693.24 764.06,-694.8 767.32,-701"/>
</g>
<!-- typing_extensions&#45;&gt;uvicorn -->
<g id="edge53" class="edge">
<title>typing_extensions&#45;&gt;uvicorn</title><style>.edge>path:hover{stroke-width:8}</style>
<path fill="none" stroke="black" d="M699,-528.04C757.17,-486.1 785.4,-503.69 852.75,-479.04 862,-475.66 871.88,-471.73 881.06,-467.94"/>
<polygon fill="#f910e4" stroke="black" points="882.19,-471.26 890.06,-464.17 879.49,-464.81 882.19,-471.26"/>
</g>
<!-- typing_inspection&#45;&gt;fastapi -->
<g id="edge54" class="edge">
<title>typing_inspection&#45;&gt;fastapi</title><style>.edge>path:hover{stroke-width:8}</style>
<path fill="none" stroke="black" d="M919.88,-658.04C960.75,-653.59 970.93,-683.27 1011,-674.04"/>
<path fill="none" stroke="black" d="M1013,-674.04C1061.02,-662.99 1072.3,-654.49 1113.88,-628.04"/>
</g>
<!-- typing_inspection&#45;&gt;pydantic -->
<g id="edge55" class="edge">
<title>typing_inspection&#45;&gt;pydantic</title><style>.edge>path:hover{stroke-width:8}</style>
<path fill="none" stroke="black" d="M919.88,-658.04C938.17,-656.05 957.65,-650.19 973.88,-644.17"/>
<polygon fill="#f910ba" stroke="black" points="975.08,-647.46 983.14,-640.57 972.55,-640.93 975.08,-647.46"/>
<path fill="none" stroke="black" d="M853,-666.73C872.86,-663.71 896.48,-660.37 917.88,-658.04"/>
</g>
<!-- uc_micro -->
<g id="node31" class="node">
<title>uc_micro</title><style>.edge>path:hover{stroke-width:8}</style>
<polygon fill="#883a64" stroke="black" points="55.75,-128.04 52.75,-132.04 31.75,-132.04 28.75,-128.04 0,-128.04 0,-92.04 55.75,-92.04 55.75,-128.04"/>
<text xml:space="preserve" text-anchor="middle" x="27.88" y="-106.54" font-family="Helvetica,sans-Serif" font-size="10.00" fill="#ffffff">uc_micro</text>
</g>
<!-- uc_micro&#45;&gt;linkify_it -->
<g id="edge56" class="edge">
<title>uc_micro&#45;&gt;linkify_it</title><style>.edge>path:hover{stroke-width:8}</style>
<path fill="none" stroke="black" d="M55.98,-110.04C98.1,-110.04 179.41,-110.04 227.29,-110.04"/>
<polygon fill="#883a64" stroke="black" points="227.19,-113.54 237.19,-110.04 227.19,-106.54 227.19,-113.54"/>
</g>
<!-- uvicorn&#45;&gt;src -->
<g id="edge57" class="edge">
<title>uvicorn&#45;&gt;src</title><style>.edge>path:hover{stroke-width:8}</style>
<path fill="none" stroke="black" d="M945.33,-433.69C988.53,-402.5 1078.89,-337.1 1154.75,-281.04 1170.83,-269.16 1170.94,-256.79 1190.75,-254.04"/>
</g>
<!-- yaml -->
<g id="node33" class="node">
<title>yaml</title><style>.edge>path:hover{stroke-width:8}</style>
<polygon fill="blue" stroke="black" points="725,-424.04 722,-428.04 701,-428.04 698,-424.04 671,-424.04 671,-388.04 725,-388.04 725,-424.04"/>
<text xml:space="preserve" text-anchor="middle" x="698" y="-402.54" font-family="Helvetica,sans-Serif" font-size="10.00" fill="white">yaml</text>
</g>
<!-- yaml&#45;&gt;uvicorn -->
<g id="edge58" class="edge">
<title>yaml&#45;&gt;uvicorn</title><style>.edge>path:hover{stroke-width:8}</style>
<path fill="none" stroke="black" d="M725.49,-404.04C747.2,-402.88 778.67,-402.29 805.88,-406.04"/>
</g>
</g>
</svg>
